<svg width="24" height="24" viewBox="0 0 24 24" fill="none" xmlns="http://www.w3.org/2000/svg">
<g id="Frame 4721">
<g id="Group 4791">
<circle id="Ellipse 367" cx="12" cy="12" r="10" stroke="white" stroke-width="1.5"/>
<g id="Vector">
<path d="M11.5714 6.69643C11.5714 6.3118 11.8832 6 12.2679 6C12.6525 6 12.9643 6.3118 12.9643 6.69643V18.3036C12.9643 18.6882 12.6525 19 12.2679 19C11.8832 19 11.5714 18.6882 11.5714 18.3036V6.69643Z" fill="white"/>
<path d="M6.69643 12.5C6.3118 12.5 6 12.1882 6 11.8036C6 11.4189 6.3118 11.1071 6.69643 11.1071H18.3036C18.6882 11.1071 19 11.4189 19 11.8036C19 12.1882 18.6882 12.5 18.3036 12.5H6.69643Z" fill="white"/>
</g>
</g>
</g>
</svg>
