<svg xmlns="http://www.w3.org/2000/svg" width="15" height="16.125" viewBox="0 0 15 16.125"><defs><style>.a{fill:'';fill-rule:evenodd;}</style></defs><path class="a" d="M.859,1.872C1.568,1.114,2.684.938,4.1.938h5.67c1.419,0,2.534.176,3.244.935s.859,1.905.859,3.408V8.475a.563.563,0,0,1-1.125,0V5.28c0-1.52-.191-2.25-.555-2.639s-1.006-.578-2.422-.578H4.1c-1.416,0-2.071.2-2.422.578S1.125,3.76,1.125,5.28v8.445a2.7,2.7,0,0,0,.15.992c.086.212.178.275.223.295a.411.411,0,0,0,.325-.042,2.407,2.407,0,0,0,.75-.586l.013-.014,0,0a1.88,1.88,0,0,1,2.939.168h0l.757,1.012a.563.563,0,0,1-.9.674L4.627,15.21h0A.759.759,0,0,0,3.4,15.146l-.007.007,0,0h0A3.486,3.486,0,0,1,2.269,16a1.515,1.515,0,0,1-1.216.043,1.593,1.593,0,0,1-.82-.9A3.79,3.79,0,0,1,0,13.725V5.28C0,3.777.161,2.617.859,1.872ZM8.625,13.65a2.963,2.963,0,1,1,5.415,1.662.548.548,0,0,1,.045.04l.75.75a.562.562,0,0,1-.8.8l-.75-.75a.547.547,0,0,1-.04-.045A2.963,2.963,0,0,1,8.625,13.65Zm2.962-1.837a1.838,1.838,0,1,0,1.838,1.837A1.838,1.838,0,0,0,11.587,11.813ZM3.375,5.25a.563.563,0,0,1,.563-.562h6a.563.563,0,0,1,0,1.125h-6A.563.563,0,0,1,3.375,5.25ZM4.688,7.688a.563.563,0,0,0,0,1.125h4.5a.563.563,0,0,0,0-1.125Z" transform="translate(0 -0.938)"/></svg>