<svg xmlns="http://www.w3.org/2000/svg" width="15.999" height="15.999" viewBox="0 0 15.999 15.999"><defs><style>.a{fill:;fill-rule:evenodd;}</style></defs><g transform="translate(-504 -384)"><path class="a" d="M16,10.727a.5.5,0,0,1,.5.5A5.269,5.269,0,0,1,11.227,16.5a.5.5,0,0,1-.429-.757l.716-1.193a.5.5,0,0,1,.858.515l-.2.331A4.27,4.27,0,0,0,15.5,11.227.5.5,0,0,1,16,10.727Z" transform="translate(503.5 383.5)"/><path class="a" d="M4.827,1.6A4.27,4.27,0,0,0,1.5,5.773a.5.5,0,0,1-1,0A5.269,5.269,0,0,1,5.773.5a.5.5,0,0,1,.429.757L5.486,2.45a.5.5,0,0,1-.857-.514Z" transform="translate(503.5 383.5)"/><path class="a" d="M4.328,9.25a.5.5,0,0,1,.5-.5H6.744a1.3,1.3,0,0,1,1.27,1.271,1.27,1.27,0,0,1-1.27,1.27H4.828a.5.5,0,0,1-.5-.5Zm1,.5v.541H6.744a.27.27,0,0,0,.27-.27.3.3,0,0,0-.27-.271Z" transform="translate(503.5 383.5)"/><path class="a" d="M4.328,10.793a.5.5,0,0,1,.5-.5h2.2a1.327,1.327,0,0,1,1.38,1.27,1.332,1.332,0,0,1-1.38,1.271h-2.2a.5.5,0,0,1-.5-.5Zm1,.5v.541h1.7c.272,0,.38-.184.38-.271s-.1-.27-.38-.27Z" transform="translate(503.5 383.5)"/><path class="a" d="M6.063,11.828a.5.5,0,0,1,.5.5v.764a.5.5,0,0,1-1,0v-.764A.5.5,0,0,1,6.063,11.828Z" transform="translate(503.5 383.5)"/><path class="a" d="M6.063,7.988a.5.5,0,0,1,.5.5v.764a.5.5,0,0,1-1,0V8.488A.5.5,0,0,1,6.063,7.988Z" transform="translate(503.5 383.5)"/><path class="a" d="M6.238,7.086a3.707,3.707,0,1,0,3.707,3.707c0-.049,0-.1,0-.149v-.007c0-.043,0-.093,0-.143A3.71,3.71,0,0,0,6.532,7.1l-.03,0C6.4,7.091,6.32,7.086,6.238,7.086ZM1.531,10.793A4.7,4.7,0,0,1,6.238,6.086c.114,0,.221.006.321.012l.035,0H6.6a4.71,4.71,0,0,1,4.333,4.333q0,.019,0,.038c0,.041,0,.084,0,.138h0c0,.052,0,.114,0,.181a4.707,4.707,0,0,1-9.414,0Z" transform="translate(503.5 383.5)"/><path class="a" d="M7.064,6.144a4.713,4.713,0,0,1,3.811,3.811A3.707,3.707,0,1,0,7.064,6.144Zm-1,.106a4.707,4.707,0,1,1,4.707,4.707h-.334a.5.5,0,0,1-.5-.462A3.71,3.71,0,0,0,6.525,7.082a.5.5,0,0,1-.462-.5Z" transform="translate(503.5 383.5)"/></g></svg>