<svg width="14" height="14" viewBox="0 0 14 14" fill="none" xmlns="http://www.w3.org/2000/svg">
<g id="Group 4038">
<path id="Vector" d="M5.375 7.85445C5.375 8.42028 5.8125 8.87528 6.34917 8.87528H7.44583C7.9125 8.87528 8.29167 8.47862 8.29167 7.98278C8.29167 7.45195 8.05833 7.25945 7.71417 7.13695L5.95833 6.52445C5.61417 6.40195 5.38084 6.21528 5.38084 5.67862C5.38084 5.18863 5.76 4.78613 6.22667 4.78613H7.32333C7.86 4.78613 8.2975 5.24113 8.2975 5.80695" stroke="#745CD4" stroke-linecap="round" stroke-linejoin="round"/>
<path id="Vector_2" d="M6.83203 4.20898V9.45898" stroke="#745CD4" stroke-linecap="round" stroke-linejoin="round"/>
<path id="Vector_3" d="M12.6667 6.83333C12.6667 10.0533 10.0533 12.6667 6.83333 12.6667C3.61333 12.6667 1 10.0533 1 6.83333C1 3.61333 3.61333 1 6.83333 1" stroke="#745CD4" stroke-linecap="round" stroke-linejoin="round"/>
<path id="Vector_4" d="M12.6654 3.33333V1H10.332" stroke="#745CD4" stroke-linecap="round" stroke-linejoin="round"/>
<path id="Vector_5" d="M9.75 3.91667L12.6667 1" stroke="#745CD4" stroke-linecap="round" stroke-linejoin="round"/>
</g>
</svg>
