<svg xmlns="http://www.w3.org/2000/svg" width="11.999" height="12" viewBox="0 0 11.999 12"><defs><style>.a{fill:none;stroke:#B3B5F2;stroke-linecap:round;stroke-linejoin:round;}</style></defs><g transform="translate(-0.5 -0.5)"><path class="a" d="M9.25,7.27V8.92c0,2.2-.88,3.08-3.08,3.08H4.08C1.88,12,1,11.12,1,8.92V6.83c0-2.2.88-3.08,3.08-3.08H5.73"/><path class="a" d="M9.25,7.27H7.49c-1.32,0-1.76-.44-1.76-1.76V3.75Z"/><path class="a" d="M6.281,1h2.2"/><path class="a" d="M3.75,2.65A1.648,1.648,0,0,1,5.4,1H6.841"/><path class="a" d="M12,4.3V7.7A1.547,1.547,0,0,1,10.453,9.25"/><path class="a" d="M12,4.3h-1.65C9.112,4.3,8.7,3.887,8.7,2.65V1Z"/></g></svg>