<svg width="50" height="50" viewBox="0 0 50 50" fill="none" xmlns="http://www.w3.org/2000/svg">
<circle cx="25" cy="25" r="25" fill="#745CD4"/>
<path d="M33.4878 16.5665C31.9076 15.8414 30.2131 15.3072 28.4414 15.0013C28.4092 14.9954 28.3769 15.0101 28.3603 15.0396C28.1424 15.4273 27.901 15.9329 27.7319 16.3304C25.8263 16.0451 23.9305 16.0451 22.064 16.3304C21.8949 15.9241 21.6448 15.4273 21.4259 15.0396C21.4092 15.0111 21.377 14.9964 21.3447 15.0013C19.574 15.3063 17.8795 15.8404 16.2983 16.5665C16.2847 16.5724 16.2729 16.5822 16.2651 16.595C13.051 21.3968 12.1705 26.0807 12.6025 30.7064C12.6044 30.729 12.6171 30.7507 12.6347 30.7644C14.7553 32.3218 16.8094 33.2672 18.8255 33.8938C18.8577 33.9037 18.8919 33.8919 18.9124 33.8653C19.3893 33.2141 19.8144 32.5274 20.1789 31.8053C20.2004 31.763 20.1799 31.7128 20.1359 31.6961C19.4616 31.4403 18.8196 31.1284 18.202 30.7743C18.1531 30.7458 18.1492 30.6759 18.1942 30.6424C18.3241 30.545 18.4541 30.4437 18.5782 30.3414C18.6007 30.3227 18.632 30.3188 18.6584 30.3306C22.7158 32.1831 27.1085 32.1831 31.118 30.3306C31.1444 30.3178 31.1757 30.3217 31.1991 30.3404C31.3233 30.4427 31.4533 30.545 31.5842 30.6424C31.6291 30.6759 31.6262 30.7458 31.5774 30.7743C30.9597 31.1353 30.3177 31.4403 29.6424 31.6951C29.5985 31.7118 29.5789 31.763 29.6004 31.8053C29.9727 32.5264 30.3978 33.2131 30.8659 33.8643C30.8855 33.8919 30.9206 33.9037 30.9529 33.8938C32.9787 33.2672 35.0328 32.3218 37.1534 30.7644C37.172 30.7507 37.1837 30.73 37.1857 30.7074C37.7026 25.3595 36.3198 20.7141 33.5201 16.596C33.5132 16.5822 33.5015 16.5724 33.4878 16.5665ZM20.7848 27.8898C19.5633 27.8898 18.5567 26.7683 18.5567 25.391C18.5567 24.0137 19.5437 22.8922 20.7848 22.8922C22.0357 22.8922 23.0324 24.0236 23.0129 25.391C23.0129 26.7683 22.0259 27.8898 20.7848 27.8898ZM29.0229 27.8898C27.8013 27.8898 26.7948 26.7683 26.7948 25.391C26.7948 24.0137 27.7818 22.8922 29.0229 22.8922C30.2737 22.8922 31.2705 24.0236 31.251 25.391C31.251 26.7683 30.2737 27.8898 29.0229 27.8898Z" fill="white"/>
</svg>
