<svg width="28" height="28" viewBox="0 0 28 28" fill="none" xmlns="http://www.w3.org/2000/svg">
<g id="Group 3594">
<circle id="Ellipse 6" cx="14" cy="14" r="14" fill="#745CD4"/>
<g id="Group">
<path id="Vector" d="M18.7532 9.27713C17.8683 8.8711 16.9194 8.57195 15.9272 8.40062C15.9091 8.39731 15.8911 8.40558 15.8818 8.42211C15.7597 8.63916 15.6245 8.92233 15.5299 9.1449C14.4628 8.98514 13.4011 8.98514 12.3558 9.1449C12.2612 8.91739 12.1211 8.63916 11.9985 8.42211C11.9892 8.40613 11.9711 8.39787 11.9531 8.40062C10.9614 8.57141 10.0125 8.87055 9.12707 9.27713C9.1194 9.28044 9.11283 9.28595 9.10847 9.29311C7.30856 11.9821 6.81549 14.6051 7.05737 17.1955C7.05847 17.2082 7.06558 17.2203 7.07543 17.228C8.26296 18.1001 9.41329 18.6295 10.5423 18.9804C10.5603 18.986 10.5795 18.9794 10.591 18.9645C10.858 18.5998 11.0961 18.2152 11.3002 17.8109C11.3122 17.7872 11.3007 17.7591 11.2761 17.7497C10.8985 17.6065 10.539 17.4318 10.1931 17.2335C10.1658 17.2175 10.1636 17.1784 10.1887 17.1597C10.2615 17.1051 10.3343 17.0484 10.4038 16.9911C10.4164 16.9806 10.4339 16.9784 10.4487 16.985C12.7208 18.0224 15.1807 18.0224 17.4261 16.985C17.4409 16.9779 17.4584 16.9801 17.4715 16.9905C17.541 17.0478 17.6138 17.1051 17.6871 17.1597C17.7123 17.1784 17.7107 17.2175 17.6833 17.2335C17.3375 17.4357 16.9779 17.6065 16.5998 17.7492C16.5751 17.7585 16.5642 17.7872 16.5762 17.8109C16.7847 18.2147 17.0228 18.5992 17.2849 18.9639C17.2959 18.9794 17.3156 18.986 17.3336 18.9804C18.4681 18.6295 19.6184 18.1001 20.8059 17.228C20.8163 17.2203 20.8229 17.2087 20.824 17.196C21.1135 14.2012 20.3391 11.5998 18.7712 9.29366C18.7674 9.28595 18.7608 9.28044 18.7532 9.27713ZM11.6395 15.6182C10.9554 15.6182 10.3918 14.9902 10.3918 14.2189C10.3918 13.4476 10.9445 12.8195 11.6395 12.8195C12.34 12.8195 12.8982 13.4531 12.8872 14.2189C12.8872 14.9902 12.3345 15.6182 11.6395 15.6182ZM16.2528 15.6182C15.5687 15.6182 15.0051 14.9902 15.0051 14.2189C15.0051 13.4476 15.5578 12.8195 16.2528 12.8195C16.9533 12.8195 17.5115 13.4531 17.5005 14.2189C17.5005 14.9902 16.9533 15.6182 16.2528 15.6182Z" fill="white"/>
</g>
</g>
</svg>
