<svg width="24" height="24" viewBox="0 0 24 24" fill="none" xmlns="http://www.w3.org/2000/svg">
<circle cx="12" cy="12" r="12" fill="white" fill-opacity="0.1"/>
<path d="M16.0742 7.95186C15.3157 7.60384 14.5023 7.34742 13.6519 7.20057C13.6364 7.19773 13.6209 7.20482 13.6129 7.21898C13.5083 7.40503 13.3925 7.64775 13.3113 7.83852C12.3966 7.70159 11.4867 7.70159 10.5907 7.83852C10.5096 7.64351 10.3895 7.40503 10.2844 7.21898C10.2764 7.20529 10.261 7.19821 10.2455 7.20057C9.39552 7.34696 8.58216 7.60337 7.8232 7.95186C7.81663 7.95469 7.811 7.95942 7.80726 7.96556C6.26448 10.2704 5.84185 12.5187 6.04918 14.739C6.05012 14.7499 6.05621 14.7603 6.06466 14.7669C7.08254 15.5144 8.06853 15.9682 9.03622 16.269C9.05171 16.2737 9.06811 16.2681 9.07797 16.2553C9.30688 15.9427 9.51092 15.6131 9.68588 15.2665C9.6962 15.2462 9.68635 15.2221 9.66524 15.2141C9.34159 15.0913 9.0334 14.9416 8.73695 14.7716C8.7135 14.7579 8.71162 14.7244 8.73319 14.7083C8.79558 14.6616 8.85798 14.6129 8.91755 14.5638C8.92833 14.5549 8.94334 14.553 8.95602 14.5586C10.9036 15.4478 13.0121 15.4478 14.9367 14.5586C14.9493 14.5525 14.9643 14.5544 14.9756 14.5634C15.0352 14.6125 15.0976 14.6616 15.1604 14.7083C15.182 14.7244 15.1806 14.7579 15.1571 14.7716C14.8607 14.9449 14.5525 15.0913 14.2284 15.2136C14.2073 15.2216 14.1979 15.2462 14.2082 15.2665C14.3869 15.6126 14.591 15.9422 14.8156 16.2548C14.825 16.2681 14.8419 16.2737 14.8574 16.269C15.8298 15.9682 16.8158 15.5144 17.8336 14.7669C17.8426 14.7603 17.8482 14.7504 17.8491 14.7395C18.0973 12.1725 17.4335 9.94273 16.0896 7.96603C16.0863 7.95942 16.0807 7.95469 16.0742 7.95186ZM9.97672 13.3871C9.39036 13.3871 8.90722 12.8487 8.90722 12.1876C8.90722 11.5265 9.38099 10.9882 9.97672 10.9882C10.5771 10.9882 11.0556 11.5313 11.0462 12.1876C11.0462 12.8487 10.5724 13.3871 9.97672 13.3871ZM13.931 13.3871C13.3446 13.3871 12.8615 12.8487 12.8615 12.1876C12.8615 11.5265 13.3352 10.9882 13.931 10.9882C14.5314 10.9882 15.0098 11.5313 15.0005 12.1876C15.0005 12.8487 14.5314 13.3871 13.931 13.3871Z" fill="#F3F3F3"/>
</svg>
