<svg width="48" height="48" viewBox="0 0 48 48" fill="none" xmlns="http://www.w3.org/2000/svg">
<g id="3">
<circle id="Ellipse 6" cx="24" cy="24" r="24" fill="#0F0F0F"/>
<g id="Group">
<path id="Vector" d="M32.1483 15.9036C30.6313 15.2075 29.0046 14.6947 27.3038 14.401C27.2728 14.3953 27.2418 14.4095 27.2259 14.4378C27.0167 14.8099 26.7849 15.2953 26.6227 15.6769C24.7933 15.403 22.9733 15.403 21.1814 15.6769C21.0191 15.2869 20.779 14.8099 20.5688 14.4378C20.5529 14.4104 20.5219 14.3963 20.491 14.401C18.791 14.6938 17.1643 15.2066 15.6464 15.9036C15.6333 15.9092 15.622 15.9187 15.6145 15.931C12.529 20.5407 11.6837 25.0372 12.0984 29.4779C12.1002 29.4996 12.1124 29.5204 12.1293 29.5336C14.1651 31.0286 16.1371 31.9362 18.0724 32.5378C18.1034 32.5473 18.1362 32.536 18.1559 32.5104C18.6138 31.8853 19.0219 31.226 19.3718 30.5328C19.3924 30.4922 19.3727 30.444 19.3305 30.428C18.6832 30.1824 18.0668 29.883 17.4739 29.5431C17.427 29.5157 17.4232 29.4486 17.4664 29.4165C17.5912 29.323 17.716 29.2257 17.8351 29.1275C17.8567 29.1096 17.8867 29.1058 17.912 29.1171C21.8072 30.8955 26.0241 30.8955 29.8733 29.1171C29.8986 29.1048 29.9287 29.1086 29.9512 29.1266C30.0703 29.2248 30.1951 29.323 30.3208 29.4165C30.364 29.4486 30.3612 29.5157 30.3143 29.5431C29.7213 29.8897 29.105 30.1824 28.4567 30.427C28.4145 30.4431 28.3957 30.4922 28.4164 30.5328C28.7738 31.2251 29.1819 31.8843 29.6313 32.5095C29.65 32.536 29.6838 32.5473 29.7148 32.5378C31.6595 31.9362 33.6315 31.0286 35.6673 29.5336C35.6851 29.5204 35.6964 29.5006 35.6982 29.4788C36.1945 24.3449 34.867 19.8853 32.1793 15.9319C32.1727 15.9187 32.1615 15.9092 32.1483 15.9036ZM19.9534 26.774C18.7807 26.774 17.8144 25.6973 17.8144 24.3751C17.8144 23.0529 18.762 21.9763 19.9534 21.9763C21.1542 21.9763 22.1111 23.0624 22.0924 24.3751C22.0924 25.6973 21.1448 26.774 19.9534 26.774ZM27.8619 26.774C26.6893 26.774 25.723 25.6973 25.723 24.3751C25.723 23.0529 26.6705 21.9763 27.8619 21.9763C29.0628 21.9763 30.0197 23.0624 30.0009 24.3751C30.0009 25.6973 29.0628 26.774 27.8619 26.774Z" fill="#666666"/>
</g>
</g>
</svg>
