<svg width="50" height="51" viewBox="0 0 50 51" fill="none" xmlns="http://www.w3.org/2000/svg">
<circle cx="25" cy="25.2117" r="25" fill="#666666"/>
<path d="M25 0.21167C11.1958 0.21167 0 11.4075 0 25.2117C0 39.0158 11.1958 50.2117 25 50.2117C38.8042 50.2117 50 39.0158 50 25.2117C50 11.4075 38.8104 0.21167 25 0.21167ZM12.3333 26.0513L12.4396 25.8825L18.9458 15.7075C18.9676 15.6741 18.998 15.6471 19.0338 15.6294C19.0696 15.6117 19.1094 15.6039 19.1493 15.6069C19.1891 15.6099 19.2273 15.6235 19.2601 15.6463C19.2928 15.6691 19.3189 15.7004 19.3354 15.7367C20.4188 18.1721 21.3604 21.2013 20.9188 23.0867C20.7354 23.8617 20.2208 24.9117 19.6396 25.8825C19.565 26.0245 19.4837 26.1629 19.3958 26.2971C19.3748 26.327 19.3466 26.3513 19.3139 26.3676C19.2812 26.384 19.2449 26.392 19.2083 26.3908H12.5271C12.4872 26.3915 12.4479 26.3813 12.4134 26.3613C12.3788 26.3414 12.3503 26.3125 12.3309 26.2777C12.3114 26.2429 12.3018 26.2034 12.3029 26.1635C12.3041 26.1237 12.316 26.0849 12.3375 26.0513H12.3333ZM41.3208 29.5513C41.3214 29.5957 41.3088 29.6394 41.2847 29.6768C41.2606 29.7142 41.2261 29.7437 41.1854 29.7617C40.6792 29.9763 38.9563 30.7721 38.2396 31.7658C36.4104 34.3117 35.0146 37.9533 31.8896 37.9533H18.8604C17.7603 37.9517 16.6714 37.7333 15.6557 37.3106C14.6401 36.8879 13.7177 36.2692 12.9413 35.4899C12.1649 34.7106 11.5497 33.7859 11.1308 32.7687C10.7119 31.7515 10.4975 30.6617 10.5 29.5617V29.4117C10.5 29.2908 10.6 29.1908 10.725 29.1908H17.9854C18.1313 29.1908 18.2354 29.3221 18.225 29.4658C18.1708 29.9367 18.2604 30.4221 18.4854 30.8617C18.9146 31.7367 19.8104 32.2825 20.775 32.2825H24.3708V29.4763H20.8125C20.7708 29.4758 20.73 29.464 20.6945 29.4421C20.6591 29.4202 20.6302 29.389 20.6112 29.3519C20.5921 29.3149 20.5835 29.2733 20.5863 29.2317C20.5891 29.1901 20.6032 29.15 20.6271 29.1158L20.7583 28.9283C21.0917 28.4471 21.5729 27.7075 22.0521 26.8617C22.3771 26.2908 22.6938 25.6825 22.9479 25.07C22.9979 24.9617 23.0375 24.8471 23.0833 24.7367C23.1521 24.5408 23.2229 24.3575 23.2729 24.1763C23.322 24.0226 23.3671 23.8677 23.4083 23.7117C23.5271 23.1908 23.5771 22.6408 23.5771 22.0721C23.5771 21.8471 23.5688 21.6117 23.5479 21.3908C23.5375 21.1471 23.5063 20.9013 23.4771 20.6575C23.4538 20.4394 23.4204 20.2225 23.3771 20.0075C23.321 19.6801 23.2529 19.3549 23.1729 19.0325L23.1438 18.9075C23.0813 18.6825 23.0271 18.47 22.9563 18.2471C22.7579 17.5625 22.5299 16.8869 22.2729 16.2221C22.1834 15.972 22.0847 15.7253 21.9771 15.4825C21.8271 15.1117 21.6729 14.7763 21.5333 14.4617C21.4639 14.3269 21.3986 14.19 21.3375 14.0513C21.2697 13.9015 21.1982 13.7536 21.1229 13.6075C21.0729 13.4971 21.0125 13.3908 20.9729 13.2908L20.5333 12.4825C20.4729 12.3721 20.5729 12.2367 20.6937 12.2721L23.4438 13.0158H23.4646L23.825 13.12L24.225 13.2325L24.3708 13.2721V11.6408C24.3708 10.8513 25 10.2117 25.7854 10.2117C25.9709 10.2112 26.1545 10.2482 26.3253 10.3205C26.4961 10.3928 26.6505 10.499 26.7792 10.6325C27.0452 10.9008 27.1948 11.263 27.1958 11.6408V14.0658L27.4896 14.1471C27.5104 14.1575 27.5354 14.1679 27.5542 14.1825C27.625 14.2325 27.7292 14.3117 27.8604 14.4117C27.9646 14.4908 28.075 14.5908 28.2042 14.6971C28.6156 15.0323 29.0144 15.3825 29.4 15.7471C29.8458 16.1617 30.3458 16.6471 30.825 17.1867C30.9604 17.3408 31.0896 17.4908 31.225 17.6575C31.3542 17.8221 31.5 17.9825 31.6208 18.1408C31.7854 18.3575 31.9542 18.5825 32.1104 18.8158C32.1792 18.9263 32.2646 19.0408 32.3292 19.1513C32.5292 19.4471 32.7 19.7513 32.8646 20.0575C32.9354 20.1971 33.0042 20.3513 33.0646 20.5013C33.25 20.9117 33.3958 21.3263 33.4854 21.7471C33.5151 21.8364 33.5353 21.9286 33.5458 22.0221V22.0429C33.575 22.1617 33.5854 22.2929 33.5958 22.4263C33.6545 23.042 33.5792 23.6632 33.375 24.2471C33.3104 24.4221 33.25 24.6013 33.1708 24.7763C33.0146 25.1304 32.8354 25.4908 32.6208 25.8221C32.55 25.9471 32.4646 26.0763 32.3854 26.2013C32.2958 26.3325 32.2 26.4575 32.1208 26.5763C32.0063 26.734 31.8861 26.8876 31.7604 27.0367C31.65 27.1867 31.5396 27.3367 31.4146 27.4721C31.2458 27.6763 31.0813 27.8679 30.9042 28.0513C30.8042 28.1721 30.6958 28.2971 30.5792 28.4054C30.4708 28.5304 30.3542 28.6408 30.2542 28.7408C30.0792 28.9158 29.9417 29.0471 29.8208 29.1617L29.5354 29.4158C29.4957 29.4557 29.4417 29.4782 29.3854 29.4783H27.1958V32.2825H29.95C30.5646 32.2825 31.15 32.0658 31.625 31.6617C31.7854 31.5221 32.4896 30.9117 33.325 29.9908C33.3522 29.9595 33.3887 29.9376 33.4292 29.9283L41.0333 27.7263C41.0667 27.7166 41.1019 27.7148 41.1361 27.721C41.1703 27.7272 41.2026 27.7413 41.2304 27.7621C41.2583 27.7829 41.2809 27.8098 41.2966 27.8408C41.3123 27.8719 41.3206 27.9061 41.3208 27.9408V29.5513Z" fill="#0F0F0F"/>
</svg>
