<svg xmlns="http://www.w3.org/2000/svg" width="15" height="14.072" viewBox="0 0 15 14.072"><defs><style>.a{fill:'';fill-rule:evenodd;}</style></defs><path class="a" d="M2.073.971A1.9,1.9,0,0,0,0,2.881v8.428a1.956,1.956,0,0,0,1.669,1.9l.2.027h0a17.423,17.423,0,0,1,5.009,1.643l.017.009.02.01a1.237,1.237,0,0,0,.58.138,1.2,1.2,0,0,0,.589-.146A17.271,17.271,0,0,1,13.1,13.237l.227-.027h0A1.956,1.956,0,0,0,15,11.309V2.888A1.9,1.9,0,0,0,12.942.976h-.021l-.045,0A13.656,13.656,0,0,0,7.71,2.71l-.116.075a.131.131,0,0,1-.023.008.317.317,0,0,1-.142,0,.126.126,0,0,1-.023-.008l-.177-.106A13.6,13.6,0,0,0,2.073.971ZM1.047,2.881a.85.85,0,0,1,.94-.867h0A12.584,12.584,0,0,1,6.679,3.569l.179.108a1.054,1.054,0,0,0,.118.063V13.753A18.793,18.793,0,0,0,2.01,12.2h0l-.2-.028H1.8a.912.912,0,0,1-.756-.862ZM8.023,13.744a18.641,18.641,0,0,1,4.94-1.545h.006l.228-.028h0a.912.912,0,0,0,.755-.862V2.888a.852.852,0,0,0-.947-.867l-.044,0h-.019A12.676,12.676,0,0,0,8.27,3.594l-.124.08a1.051,1.051,0,0,1-.122.065ZM2.442,5.553a.523.523,0,0,1,.523-.523h1.57a.523.523,0,1,1,0,1.047H2.965A.523.523,0,0,1,2.442,5.553Zm.523,1.57a.523.523,0,1,0,0,1.047H5.058a.523.523,0,1,0,0-1.047Z" transform="translate(0 -0.964)"/></svg>