<svg width="40" height="40" viewBox="0 0 40 40" fill="none" xmlns="http://www.w3.org/2000/svg">
<circle cx="20" cy="20" r="20" fill="white" fill-opacity="0.1"/>
<path d="M24.8709 28.4H13.5883C12.1613 28.4 11 27.2387 11 25.8117V14.5291C11 13.1021 12.1594 11.9408 13.5845 11.9408H19.2293V13.3517H13.5845C12.9372 13.3517 12.4109 13.88 12.4109 14.5291V25.8117C12.4109 26.4608 12.9392 26.9891 13.5883 26.9891H24.8709C25.52 26.9891 26.0483 26.4634 26.0483 25.8168V21.1109H27.4592V25.8168C27.4592 27.2413 26.2979 28.4 24.8709 28.4Z" fill="white"/>
<path d="M27.9293 18.5245C27.54 18.5245 27.2238 18.2089 27.2238 17.819V12.6475C27.2238 12.5176 27.1197 12.4109 26.9924 12.4109H21.581C21.1917 12.4109 20.8755 12.0953 20.8755 11.7054C20.8755 11.3155 21.1917 11 21.581 11H26.9924C27.8982 11 28.6347 11.7391 28.6347 12.6475V17.819C28.6347 18.2089 28.3185 18.5245 27.9293 18.5245Z" fill="white"/>
<path d="M18.2852 22.0549C18.1048 22.0549 17.9238 21.9864 17.7861 21.8487C17.5106 21.5732 17.5106 21.127 17.7861 20.8509L26.4893 12.1471C26.7648 11.8716 27.2109 11.8716 27.487 12.1471C27.7631 12.4225 27.7625 12.8693 27.487 13.1448L18.7838 21.848C18.646 21.9857 18.4663 22.0549 18.2852 22.0549Z" fill="white"/>
<path d="M24.8709 28.4H13.5883C12.1613 28.4 11 27.2387 11 25.8117V14.5291C11 13.1021 12.1594 11.9408 13.5845 11.9408H19.2293V13.3517H13.5845C12.9372 13.3517 12.4109 13.88 12.4109 14.5291V25.8117C12.4109 26.4608 12.9392 26.9891 13.5883 26.9891H24.8709C25.52 26.9891 26.0483 26.4634 26.0483 25.8168V21.1109H27.4592V25.8168C27.4592 27.2413 26.2979 28.4 24.8709 28.4Z" stroke="#FAFAFA" stroke-width="0.4"/>
<path d="M27.9293 18.5245C27.54 18.5245 27.2238 18.2089 27.2238 17.819V12.6475C27.2238 12.5176 27.1197 12.4109 26.9924 12.4109H21.581C21.1917 12.4109 20.8755 12.0953 20.8755 11.7054C20.8755 11.3155 21.1917 11 21.581 11H26.9924C27.8982 11 28.6347 11.7391 28.6347 12.6475V17.819C28.6347 18.2089 28.3185 18.5245 27.9293 18.5245Z" stroke="#FAFAFA" stroke-width="0.4"/>
<path d="M18.2852 22.0549C18.1048 22.0549 17.9238 21.9864 17.7861 21.8487C17.5106 21.5732 17.5106 21.127 17.7861 20.8509L26.4893 12.1471C26.7648 11.8716 27.2109 11.8716 27.487 12.1471C27.7631 12.4225 27.7625 12.8693 27.487 13.1448L18.7838 21.848C18.646 21.9857 18.4663 22.0549 18.2852 22.0549Z" stroke="#FAFAFA" stroke-width="0.4"/>
</svg>
