<svg xmlns="http://www.w3.org/2000/svg" width="21.818" height="21.818" viewBox="0 0 21.818 21.818"><defs><style>.a{fill:;fill-rule:evenodd;}</style></defs><path class="a" d="M8.978,1.091c-2.6,0-4.639.515-6.006,1.882S1.09,6.379,1.09,8.979v6.042a9.759,9.759,0,0,0,1.028,4.888,5.531,5.531,0,0,0,3.459,2.582h0a12.051,12.051,0,0,0,3.4.417H15.02a12.07,12.07,0,0,0,3.389-.414h0a5.534,5.534,0,0,0,3.469-2.585,9.759,9.759,0,0,0,1.028-4.888V8.979c0-2.6-.515-4.639-1.882-6.006S17.62,1.091,15.02,1.091ZM6.791,21.057C7.342,19.3,9.359,17.844,12,17.844s4.656,1.458,5.208,3.213a12.169,12.169,0,0,1-2.187.174H8.978A12.169,12.169,0,0,1,6.791,21.057Zm5.429-4.888c3.064.081,5.81,1.833,6.594,4.39a3.6,3.6,0,0,0,1.611-1.486,8.148,8.148,0,0,0,.8-4.051V8.979c0-2.435-.492-3.921-1.391-4.819S17.455,2.769,15.02,2.769H8.978c-2.435,0-3.921.492-4.819,1.391S2.768,6.544,2.768,8.979v6.042a8.149,8.149,0,0,0,.8,4.051,3.6,3.6,0,0,0,1.611,1.486c.784-2.557,3.532-4.31,6.6-4.39l.181,0H12m-2.766-5.6A2.766,2.766,0,1,1,12,13.346,2.762,2.762,0,0,1,9.233,10.57ZM12,6.126a4.449,4.449,0,1,0,4.444,4.444A4.441,4.441,0,0,0,12,6.126Z" transform="translate(-1.09 -1.091)"/></svg>