<svg xmlns="http://www.w3.org/2000/svg" width="21.819" height="19.636" viewBox="0 0 21.819 19.636"><defs><style>.a{fill:;fill-rule:evenodd;}</style></defs><path class="a" d="M57.245,3.9a4.389,4.389,0,0,1,.7-.054h9.1a3.69,3.69,0,0,1,.627.041l.039.006a3.905,3.905,0,0,1,2.614,1.365A4.681,4.681,0,0,1,71.3,8.3V9H70l-.106,0a2.754,2.754,0,0,0-1.918.877,3.034,3.034,0,0,0-.837,2.387A3,3,0,0,0,70.115,15H71.3v.7a4.57,4.57,0,0,1-1.156,3.241,4.161,4.161,0,0,1-3.1,1.209h-9.1a4.161,4.161,0,0,1-3.1-1.209A4.571,4.571,0,0,1,53.686,15.7V8.3a4.691,4.691,0,0,1,.961-3.02,3.882,3.882,0,0,1,2.577-1.373ZM72.895,14.8v.9a6.272,6.272,0,0,1-1.624,4.421,5.714,5.714,0,0,1-4.229,1.7h-9.1a5.715,5.715,0,0,1-4.229-1.7A6.272,6.272,0,0,1,52.09,15.7V8.3a6.4,6.4,0,0,1,1.342-4.1,5.454,5.454,0,0,1,3.582-1.945,5.92,5.92,0,0,1,.929-.071h9.1a5.229,5.229,0,0,1,.869.061,5.475,5.475,0,0,1,3.62,1.93A6.389,6.389,0,0,1,72.895,8.3v.9a1.917,1.917,0,0,1,1.014,1.708v2.177A1.917,1.917,0,0,1,72.895,14.8ZM69.95,10.669a1.189,1.189,0,0,0-.837.381l-.014.015a1.322,1.322,0,0,0-.37,1.047v.01h0a1.379,1.379,0,0,0,1.388,1.211h1.963a.245.245,0,0,0,.232-.243V10.911a.245.245,0,0,0-.23-.243H69.95ZM57.145,8.829a.817.817,0,0,1,.8-.834h6.066a.835.835,0,0,1,0,1.669H57.943A.817.817,0,0,1,57.145,8.829Z" transform="translate(-52.09 -2.182)"/></svg>