<svg xmlns="http://www.w3.org/2000/svg" width="14.99" height="14.425" viewBox="0 0 14.99 14.425"><defs><style>.a{fill:;}</style></defs><g transform="translate(-82.4 -2546.489)"><path class="a" d="M89.9,2560.914a.5.5,0,0,1-.365-.158l-5.6-5.964a5.086,5.086,0,0,1-.294-6.962,4.237,4.237,0,0,1,1.39-.991,4.064,4.064,0,0,1,3.3,0,4.237,4.237,0,0,1,1.39.991l.174.188.171-.186a4.253,4.253,0,0,1,1.391-.993,4.066,4.066,0,0,1,3.3,0,4.244,4.244,0,0,1,1.39.991,5.087,5.087,0,0,1-.291,6.959l-5.6,5.967A.5.5,0,0,1,89.9,2560.914Zm-3.215-13.427a3.07,3.07,0,0,0-1.246.266,3.269,3.269,0,0,0-1.064.761,4.1,4.1,0,0,0,.3,5.6l5.229,5.573,5.23-5.576a4.1,4.1,0,0,0,.294-5.594h0a3.269,3.269,0,0,0-1.064-.761,3.072,3.072,0,0,0-2.492,0,3.248,3.248,0,0,0-1.064.761l-.536.58a.519.519,0,0,1-.735,0l-.538-.582a3.263,3.263,0,0,0-1.062-.759A3.071,3.071,0,0,0,86.681,2547.487Z"/></g></svg>