<svg xmlns="http://www.w3.org/2000/svg" width="15" height="14.998" viewBox="0 0 15 14.998"><defs><style>.a{fill:;fill-rule:evenodd;}</style></defs><path class="a" d="M89.839,2595.392a.912.912,0,0,1,1.115,0l1.1.95a1.9,1.9,0,0,0,.566.322,1.878,1.878,0,0,0,.642.128h1.19a.856.856,0,0,1,.85.851v1.189a2.067,2.067,0,0,0,.45,1.208h0l.95,1.1a.912.912,0,0,1,0,1.114l-.949,1.1h0a2.046,2.046,0,0,0-.45,1.208v1.189a.856.856,0,0,1-.85.851h-1.19a2.053,2.053,0,0,0-1.209.451l-1.1.95a.911.911,0,0,1-1.113,0l-1.1-.949h0a2.052,2.052,0,0,0-1.209-.45h-1.21a.856.856,0,0,1-.851-.851v-1.2a1.9,1.9,0,0,0-.126-.635,1.978,1.978,0,0,0-.311-.56l-.947-1.114h0a.909.909,0,0,1,0-1.1h0l.944-1.111,0,0a1.952,1.952,0,0,0,.312-.56,1.9,1.9,0,0,0,.126-.635v-1.2a.856.856,0,0,1,.851-.851h1.21a2.065,2.065,0,0,0,1.208-.45Zm1.761-.763a1.911,1.911,0,0,0-2.41,0l-1.106.945,0,0a.918.918,0,0,1-.264.142.939.939,0,0,1-.291.065h-1.21a1.857,1.857,0,0,0-1.851,1.851v1.2a.911.911,0,0,1-.064.287.966.966,0,0,1-.141.266l-.942,1.111,0,0a1.908,1.908,0,0,0,0,2.392l.944,1.113a.967.967,0,0,1,.141.266.906.906,0,0,1,.064.287v1.2a1.857,1.857,0,0,0,1.851,1.851h1.21a1.088,1.088,0,0,1,.555.207h0l1.105.951,0,0a1.911,1.911,0,0,0,2.411,0h0l1.106-.951h0a.911.911,0,0,1,.264-.142.928.928,0,0,1,.29-.065h1.19a1.856,1.856,0,0,0,1.85-1.851v-1.189a.908.908,0,0,1,.065-.292.9.9,0,0,1,.142-.262v0l.952-1.1,0,0a1.91,1.91,0,0,0,0-2.411l-.953-1.106v0a.892.892,0,0,1-.142-.264.933.933,0,0,1-.065-.29v-1.189a1.856,1.856,0,0,0-1.85-1.851h-1.19a.912.912,0,0,1-.292-.065.9.9,0,0,1-.262-.142l-1.107-.952Zm1.676,5.724a.5.5,0,1,0-.708-.706l-3.025,3.031-1.332-1.338a.5.5,0,0,0-.709.706l1.686,1.693a.5.5,0,0,0,.709,0Z" transform="translate(-82.896 -2594.202)"/></svg>