<svg xmlns="http://www.w3.org/2000/svg" width="15" height="15" viewBox="0 0 15 15"><defs><style>.a{fill:;}</style></defs><g transform="translate(-82.396 -2642.201)"><path class="a" d="M92,2642.2h-4.2c-3.785,0-5.4,1.615-5.4,5.4v4.2c0,3.785,1.614,5.4,5.4,5.4H92c3.785,0,5.4-1.615,5.4-5.4v-4.2C97.4,2643.816,95.781,2642.2,92,2642.2Zm4.4,9.6c0,3.208-1.193,4.4-4.4,4.4h-4.2c-3.207,0-4.4-1.192-4.4-4.4v-4.2c0-3.207,1.192-4.4,4.4-4.4H92c3.207,0,4.4,1.193,4.4,4.4Z"/><path class="a" d="M93.252,2646.506l-2.242-1.248a2.453,2.453,0,0,0-2.229.011l-2.237,1.244a2.492,2.492,0,0,0-1.182,2.005v2.373a2.486,2.486,0,0,0,1.181,2l2.24,1.246a2.318,2.318,0,0,0,1.112.264,2.357,2.357,0,0,0,1.117-.264l2.24-1.246a2.5,2.5,0,0,0,1.181-2v-2.38A2.48,2.48,0,0,0,93.252,2646.506Zm-3.982-.365.005,0a1.306,1.306,0,0,1,.628-.14,1.346,1.346,0,0,1,.623.135l2.243,1.248a1.025,1.025,0,0,1,.222.178l-3.095,1.795-3.088-1.789a1,1,0,0,1,.221-.178Zm-2.243,5.88a1.488,1.488,0,0,1-.665-1.13v-2.373c0-.016.008-.034.009-.05l3.025,1.751v3.094a.831.831,0,0,1-.126-.044Zm6.406-1.13a1.5,1.5,0,0,1-.667,1.131l-2.238,1.245a1.171,1.171,0,0,1-.132.046v-3.093l3.029-1.756c0,.015.008.032.008.047Z"/></g></svg>