<svg xmlns="http://www.w3.org/2000/svg" width="15" height="15.03" viewBox="0 0 15 15.03"><defs><style>.a{fill:;}</style></defs><g transform="translate(-82.396 -2690.186)"><path class="a" d="M92.188,2690.186c-3.26,0-4.825,1.293-5.074,4.193a.5.5,0,0,0,1,.086c.2-2.361,1.347-3.279,4.174-3.279,3.036,0,4.112,1.076,4.112,4.113v4.8c0,3.037-1.076,4.113-4.208,4.113-2.713,0-3.854-.9-4.07-3.224a.512.512,0,0,0-.545-.451.5.5,0,0,0-.451.545c.266,2.856,1.829,4.13,5.162,4.13,3.583,0,5.112-1.529,5.112-5.113v-4.8C97.4,2691.715,95.867,2690.186,92.188,2690.186Z"/><path class="a" d="M84.1,2698.193h8a.5.5,0,0,0,0-1h-8l1.615-1.615a.5.5,0,0,0-.707-.707l-2.468,2.469a.5.5,0,0,0,0,.707l2.468,2.469a.5.5,0,1,0,.707-.707Z"/></g></svg>