<svg width="14" height="14" viewBox="0 0 14 14" fill="none" xmlns="http://www.w3.org/2000/svg">
<g id="vuesax/linear/group">
<path id="Vector" d="M7 3.24316H12.8333" stroke="#745cd4" stroke-miterlimit="10" stroke-linecap="round" stroke-linejoin="round"/>
<path id="Vector_2" d="M8.295 1.16699H11.5383C12.5767 1.16699 12.8333 1.42366 12.8333 2.45033V4.84783C12.8333 5.87449 12.5767 6.13116 11.5383 6.13116H8.295C7.25667 6.13116 7 5.87449 7 4.84783V2.45033C7 1.42366 7.25667 1.16699 8.295 1.16699Z" stroke="#745cd4" stroke-linecap="round" stroke-linejoin="round"/>
<path id="Vector_3" d="M1.16602 9.95215H6.99935" stroke="#745cd4" stroke-miterlimit="10" stroke-linecap="round" stroke-linejoin="round"/>
<path id="Vector_4" d="M2.46102 7.875H5.70435C6.74268 7.875 6.99935 8.13167 6.99935 9.15833V11.5558C6.99935 12.5825 6.74268 12.8392 5.70435 12.8392H2.46102C1.42268 12.8392 1.16602 12.5825 1.16602 11.5558V9.15833C1.16602 8.13167 1.42268 7.875 2.46102 7.875Z" stroke="#745cd4" stroke-linecap="round" stroke-linejoin="round"/>
<g id="Group">
<path id="Vector_5" d="M12.8392 8.74902C12.8392 11.0065 11.0134 12.8324 8.75586 12.8324L9.36835 11.8115" stroke="#745cd4" stroke-linecap="round" stroke-linejoin="round"/>
<path id="Vector_6" d="M1.17188 5.24935C1.17188 2.99185 2.99771 1.16602 5.25521 1.16602L4.64272 2.18685" stroke="#745cd4" stroke-linecap="round" stroke-linejoin="round"/>
</g>
</g>
</svg>
