<svg width="20" height="22" viewBox="0 0 20 22" fill="none" xmlns="http://www.w3.org/2000/svg">
<g id="&#229;&#128;&#146;&#232;&#174;&#161;&#230;&#151;&#182;">
<path id="Vector" d="M0 0.935C0 0.418614 0.418614 0 0.935 0H18.865C19.3814 0 19.8 0.418614 19.8 0.935C19.8 1.45139 19.3814 1.87 18.865 1.87H0.934999C0.418613 1.87 0 1.45139 0 0.935ZM0 21.065C0 20.5486 0.418614 20.13 0.935001 20.13H18.865C19.3814 20.13 19.8 20.5486 19.8 21.065C19.8 21.5814 19.3814 22 18.865 22H0.935002C0.418615 22 0 21.5814 0 21.065Z" fill="#F8F8F8"/>
<path id="Vector_2" d="M7.1499 16.3987C7.1499 15.8519 7.59314 15.4087 8.1399 15.4087H11.6599C12.2067 15.4087 12.6499 15.8519 12.6499 16.3987C12.6499 16.9455 12.2067 17.3887 11.6599 17.3887H8.1399C7.59314 17.3887 7.1499 16.9455 7.1499 16.3987Z" fill="#745CD4"/>
<path id="Vector_3" d="M2.2002 1.1C2.2002 0.808262 2.31609 0.528472 2.52238 0.322182C2.72867 0.115892 3.00846 0 3.3002 0H16.5002C16.7919 0 17.0717 0.115892 17.278 0.322182C17.4843 0.528472 17.6002 0.808262 17.6002 1.1V6.05C17.6003 6.29462 17.5188 6.53227 17.3686 6.7254L14.9989 9.7721C14.4372 10.4943 14.4372 11.5057 14.9989 12.2279L17.3686 15.2746C17.5188 15.4677 17.6003 15.7054 17.6002 15.95V20.9C17.6002 21.1917 17.4843 21.4715 17.278 21.6778C17.0717 21.8841 16.7919 22 16.5002 22H3.3002C3.00846 22 2.72867 21.8841 2.52238 21.6778C2.31609 21.4715 2.2002 21.1917 2.2002 20.9V15.95C2.20013 15.7054 2.28161 15.4677 2.43175 15.2746L4.80145 12.2279C5.36319 11.5057 5.36319 10.4943 4.80145 9.7721L2.43175 6.7254C2.28161 6.53227 2.20013 6.29462 2.2002 6.05V1.1ZM4.1802 1.65V4.30018C4.1802 5.18974 4.47672 6.05392 5.02289 6.75607L7.79865 10.3246C7.94886 10.5177 8.03041 10.7554 8.03041 11C8.03041 11.2446 7.94886 11.4823 7.79865 11.6754L5.02039 15.2435C4.47346 15.9459 4.17648 16.8107 4.17648 17.7009V20.2547H15.6202V17.6998C15.6202 16.8103 15.3237 15.9461 14.7775 15.2439L12.0017 11.6754C11.8515 11.4823 11.77 11.2446 11.77 11C11.77 10.7554 11.8515 10.5177 12.0017 10.3246L14.7775 6.75607C15.3237 6.05392 15.6202 5.18974 15.6202 4.30018V1.65H4.1802Z" fill="#F8F8F8"/>
<path id="Vector_4" d="M9.03193 9.19689L7.74003 7.53588C7.39038 7.08633 7.47138 6.43846 7.92094 6.08883C8.41084 5.70784 9.12385 5.84276 9.44066 6.37642L9.8999 7.15L10.3598 6.37599C10.6768 5.84249 11.3898 5.70772 11.8796 6.0887C12.3293 6.4384 12.4103 7.08641 12.0606 7.53605L10.7688 9.19689C10.666 9.32918 10.5343 9.43622 10.3838 9.50986C10.2333 9.58349 10.0679 9.62177 9.90038 9.62177C9.73283 9.62177 9.56749 9.58349 9.41698 9.50986C9.26647 9.43622 9.13477 9.32918 9.03193 9.19689Z" fill="#745CD4"/>
</g>
</svg>
