<svg xmlns="http://www.w3.org/2000/svg" width="14" height="14" viewBox="0 0 14 14"><defs><style>.a{fill:;}</style></defs><g transform="translate(-38.945 -2593.953)"><path class="a" d="M38.945,2593.953v14h14v-14Zm13,13h-12v-12h12Z"/><path class="a" d="M43.954,2604.373a3.645,3.645,0,0,0,1.928.513,3.839,3.839,0,0,0,1.27-.2,3.378,3.378,0,0,0,1.033-.574,3.125,3.125,0,0,0,.744-.887,3.4,3.4,0,0,0,.4-1.131l-1.269,0a1.946,1.946,0,0,1-.281.708,1.972,1.972,0,0,1-.488.517,2.155,2.155,0,0,1-.647.321,2.58,2.58,0,0,1-.748.106,2.356,2.356,0,0,1-1.282-.358,2.438,2.438,0,0,1-.9-1.058,4.674,4.674,0,0,1,0-3.425,2.469,2.469,0,0,1,.9-1.061,2.35,2.35,0,0,1,1.29-.362,2.533,2.533,0,0,1,.752.109,2.122,2.122,0,0,1,.647.326,2.021,2.021,0,0,1,.488.525,1.936,1.936,0,0,1,.273.716h1.269a3.422,3.422,0,0,0-.407-1.192,3.033,3.033,0,0,0-.761-.887,3.262,3.262,0,0,0-1.037-.553,3.875,3.875,0,0,0-1.237-.191,3.625,3.625,0,0,0-1.924.516,3.566,3.566,0,0,0-1.334,1.473,5.638,5.638,0,0,0,0,4.58A3.586,3.586,0,0,0,43.954,2604.373Z"/></g></svg>