<svg xmlns="http://www.w3.org/2000/svg" width="15" height="15" viewBox="0 0 15 15"><defs><style>.a{fill:;}</style></defs><g transform="translate(-38.852 -2544.419)"><path class="a" d="M46.352,2544.419a7.5,7.5,0,1,0,7.5,7.5A7.508,7.508,0,0,0,46.352,2544.419Zm0,14a6.5,6.5,0,1,1,6.5-6.5A6.508,6.508,0,0,1,46.352,2558.419Z"/><path class="a" d="M48.615,2547.979a4.1,4.1,0,0,0-2.065-.492H43.817v8.182h2.649a4.3,4.3,0,0,0,2.125-.491,3.278,3.278,0,0,0,1.342-1.415,5.389,5.389,0,0,0,.005-4.382A3.244,3.244,0,0,0,48.615,2547.979Zm.264,5.233a2.213,2.213,0,0,1-.927,1.027,3.119,3.119,0,0,1-1.554.351H45.052v-6.024h1.422a2.957,2.957,0,0,1,1.5.348,2.175,2.175,0,0,1,.907,1.018,3.91,3.91,0,0,1,.307,1.634A3.958,3.958,0,0,1,48.879,2553.212Z"/></g></svg>