<svg width="14" height="14" viewBox="0 0 14 14" fill="none" xmlns="http://www.w3.org/2000/svg">
<path d="M3.82031 5.35645L7.00031 7.19845L10.1563 5.36844" stroke="#9E9E9E" stroke-linecap="round" stroke-linejoin="round"/>
<path d="M7 10.4624V7.19238" stroke="#9E9E9E" stroke-linecap="round" stroke-linejoin="round"/>
<path d="M6.25496 3.57372L4.33496 4.64172C3.90296 4.88172 3.54297 5.48772 3.54297 5.98572V8.01972C3.54297 8.51772 3.89696 9.12372 4.33496 9.36372L6.25496 10.4317C6.66296 10.6597 7.33497 10.6597 7.74897 10.4317L9.66896 9.36372C10.101 9.12372 10.461 8.51772 10.461 8.01972V5.97972C10.461 5.48172 10.107 4.87572 9.66896 4.63572L7.74897 3.56772C7.33497 3.33972 6.66296 3.33972 6.25496 3.57372Z" stroke="#9E9E9E" stroke-linecap="round" stroke-linejoin="round"/>
<path d="M13.0008 8.7998C13.0008 11.1218 11.1228 12.9998 8.80078 12.9998L9.43078 11.9498" stroke="#9E9E9E" stroke-linecap="round" stroke-linejoin="round"/>
<path d="M1 5.2C1 2.878 2.878 1 5.2 1L4.57 2.05" stroke="#9E9E9E" stroke-linecap="round" stroke-linejoin="round"/>
</svg>
