<svg width="16" height="16" viewBox="0 0 16 16" fill="none" xmlns="http://www.w3.org/2000/svg">
<g id="Group 3766">
<path id="Vector" d="M5.66992 9.63125C5.66992 10.5343 6.36292 11.2623 7.22394 11.2623H8.98094C9.72994 11.2623 10.3389 10.6253 10.3389 9.84125C10.3389 8.98725 9.96794 8.68625 9.41494 8.49025L6.59392 7.51025C6.04091 7.31425 5.66992 7.01325 5.66992 6.15928C5.66992 5.37528 6.27892 4.73828 7.02794 4.73828H8.78494C9.64594 4.73828 10.3389 5.46628 10.3389 6.36928" stroke="#9E9E9E" stroke-linecap="round" stroke-linejoin="round"/>
<path id="Vector_2" d="M8 3.7998V12.1998" stroke="#9E9E9E" stroke-linecap="round" stroke-linejoin="round"/>
<path id="Vector_3" d="M10.1 15H5.9C2.4 15 1 13.6 1 10.1V5.9C1 2.4 2.4 1 5.9 1H10.1C13.6 1 15 2.4 15 5.9V10.1C15 13.6 13.6 15 10.1 15Z" stroke="#9E9E9E" stroke-linecap="round" stroke-linejoin="round"/>
</g>
</svg>
