<svg xmlns="http://www.w3.org/2000/svg" width="16" height="16" viewBox="0 0 16 16"><defs><style>.a{fill:;fill-rule:evenodd;}</style></defs><g transform="translate(-546 -385)"><path class="a" d="M46.9,7.07a.5.5,0,0,1,.5-.5h5.92A1.779,1.779,0,0,1,55.1,8.35V9.766a.5.5,0,1,1-1,0V8.35a.779.779,0,0,0-.78-.78H47.4A.5.5,0,0,1,46.9,7.07Z" transform="translate(503 383.119)"/><path class="a" d="M49.1,5.378a.5.5,0,0,1,0,.707l-1,.99,1,1a.5.5,0,0,1-.707.707L47.045,7.428a.5.5,0,0,1,0-.708L48.4,5.376A.5.5,0,0,1,49.1,5.378Z" transform="translate(503.2 383.22)"/><path class="a" d="M47.4,9.734a.5.5,0,0,1,.5.5V11.65a.779.779,0,0,0,.78.78H54.6a.5.5,0,0,1,0,1h-5.92a1.779,1.779,0,0,1-1.78-1.78V10.234A.5.5,0,0,1,47.4,9.734Z" transform="translate(503 382.881)"/><path class="a" d="M52.9,11.221a.5.5,0,0,1,.707,0l1.352,1.352a.5.5,0,0,1,0,.708L53.6,14.625a.5.5,0,0,1-.705-.709l1-.99-1-1A.5.5,0,0,1,52.9,11.221Z" transform="translate(502.8 382.78)"/><path class="a" d="M42.5,9.5a8,8,0,1,1,8,8A8,8,0,0,1,42.5,9.5Zm8-7.059A7.059,7.059,0,1,0,57.559,9.5,7.059,7.059,0,0,0,50.5,2.441Z" transform="translate(503.5 383.5)"/></g></svg>