<svg width="106" height="30" viewBox="0 0 106 30" fill="none" xmlns="http://www.w3.org/2000/svg">
<path d="M38.8849 20V9.81818H42.902C43.6742 9.81818 44.3321 9.96567 44.8757 10.2607C45.4193 10.5523 45.8336 10.9583 46.1186 11.4787C46.407 11.9957 46.5511 12.5923 46.5511 13.2685C46.5511 13.9446 46.4053 14.5412 46.1136 15.0582C45.822 15.5753 45.3994 15.978 44.8459 16.2663C44.2957 16.5547 43.6295 16.6989 42.8473 16.6989H40.2869V14.9737H42.4993C42.9136 14.9737 43.255 14.9025 43.5234 14.7599C43.7952 14.6141 43.9974 14.4136 44.13 14.1584C44.2659 13.8999 44.3338 13.6032 44.3338 13.2685C44.3338 12.9304 44.2659 12.6354 44.13 12.3835C43.9974 12.1283 43.7952 11.9311 43.5234 11.7919C43.2517 11.6494 42.907 11.5781 42.4893 11.5781H41.0376V20H38.8849ZM47.9096 20V12.3636H49.9629V13.696H50.0424C50.1816 13.2221 50.4153 12.8641 50.7434 12.6222C51.0716 12.3769 51.4494 12.2543 51.877 12.2543C51.983 12.2543 52.0974 12.2609 52.22 12.2741C52.3426 12.2874 52.4503 12.3056 52.5431 12.3288V14.2081C52.4437 14.1783 52.3062 14.1518 52.1305 14.1286C51.9548 14.1054 51.7941 14.0938 51.6483 14.0938C51.3367 14.0938 51.0583 14.1617 50.813 14.2976C50.5711 14.4302 50.3788 14.6158 50.2363 14.8544C50.0971 15.093 50.0275 15.3681 50.0275 15.6797V20H47.9096ZM56.733 20.1491C55.9607 20.1491 55.2929 19.9851 54.7294 19.657C54.1693 19.3255 53.7367 18.8648 53.4318 18.2749C53.1269 17.6816 52.9744 16.9938 52.9744 16.2116C52.9744 15.4228 53.1269 14.7334 53.4318 14.1435C53.7367 13.5502 54.1693 13.0895 54.7294 12.7614C55.2929 12.4299 55.9607 12.2642 56.733 12.2642C57.5052 12.2642 58.1714 12.4299 58.7315 12.7614C59.295 13.0895 59.7292 13.5502 60.0341 14.1435C60.339 14.7334 60.4915 15.4228 60.4915 16.2116C60.4915 16.9938 60.339 17.6816 60.0341 18.2749C59.7292 18.8648 59.295 19.3255 58.7315 19.657C58.1714 19.9851 57.5052 20.1491 56.733 20.1491ZM56.7429 18.5085C57.0942 18.5085 57.3875 18.4091 57.6229 18.2102C57.8582 18.008 58.0355 17.733 58.1548 17.3849C58.2775 17.0369 58.3388 16.6409 58.3388 16.1967C58.3388 15.7526 58.2775 15.3565 58.1548 15.0085C58.0355 14.6605 57.8582 14.3854 57.6229 14.1832C57.3875 13.9811 57.0942 13.88 56.7429 13.88C56.3883 13.88 56.09 13.9811 55.848 14.1832C55.6094 14.3854 55.4287 14.6605 55.3061 15.0085C55.1868 15.3565 55.1271 15.7526 55.1271 16.1967C55.1271 16.6409 55.1868 17.0369 55.3061 17.3849C55.4287 17.733 55.6094 18.008 55.848 18.2102C56.09 18.4091 56.3883 18.5085 56.7429 18.5085ZM65.9304 12.3636V13.9545H61.3317V12.3636H65.9304ZM62.3757 10.5341H64.4936V17.6534C64.4936 17.849 64.5234 18.0014 64.5831 18.1108C64.6428 18.2169 64.7256 18.2914 64.8317 18.3345C64.9411 18.3776 65.067 18.3991 65.2095 18.3991C65.3089 18.3991 65.4084 18.3909 65.5078 18.3743C65.6072 18.3544 65.6835 18.3395 65.7365 18.3295L66.0696 19.9055C65.9635 19.9387 65.8144 19.9768 65.6222 20.0199C65.4299 20.0663 65.1963 20.0945 64.9212 20.1044C64.4107 20.1243 63.9633 20.0563 63.5788 19.9006C63.1977 19.7448 62.901 19.5028 62.6889 19.1747C62.4768 18.8466 62.3724 18.4323 62.3757 17.9318V10.5341ZM70.6783 20.1491C69.906 20.1491 69.2382 19.9851 68.6747 19.657C68.1146 19.3255 67.6821 18.8648 67.3771 18.2749C67.0722 17.6816 66.9197 16.9938 66.9197 16.2116C66.9197 15.4228 67.0722 14.7334 67.3771 14.1435C67.6821 13.5502 68.1146 13.0895 68.6747 12.7614C69.2382 12.4299 69.906 12.2642 70.6783 12.2642C71.4505 12.2642 72.1167 12.4299 72.6768 12.7614C73.2403 13.0895 73.6745 13.5502 73.9794 14.1435C74.2843 14.7334 74.4368 15.4228 74.4368 16.2116C74.4368 16.9938 74.2843 17.6816 73.9794 18.2749C73.6745 18.8648 73.2403 19.3255 72.6768 19.657C72.1167 19.9851 71.4505 20.1491 70.6783 20.1491ZM70.6882 18.5085C71.0395 18.5085 71.3329 18.4091 71.5682 18.2102C71.8035 18.008 71.9808 17.733 72.1001 17.3849C72.2228 17.0369 72.2841 16.6409 72.2841 16.1967C72.2841 15.7526 72.2228 15.3565 72.1001 15.0085C71.9808 14.6605 71.8035 14.3854 71.5682 14.1832C71.3329 13.9811 71.0395 13.88 70.6882 13.88C70.3336 13.88 70.0353 13.9811 69.7933 14.1832C69.5547 14.3854 69.3741 14.6605 69.2514 15.0085C69.1321 15.3565 69.0724 15.7526 69.0724 16.1967C69.0724 16.6409 69.1321 17.0369 69.2514 17.3849C69.3741 17.733 69.5547 18.008 69.7933 18.2102C70.0353 18.4091 70.3336 18.5085 70.6882 18.5085ZM79.4631 20H75.8537V9.81818H79.4929C80.517 9.81818 81.3987 10.022 82.1378 10.4297C82.8769 10.834 83.4453 11.4157 83.843 12.1747C84.2441 12.9337 84.4446 13.8419 84.4446 14.8991C84.4446 15.9598 84.2441 16.8712 83.843 17.6335C83.4453 18.3958 82.8736 18.9808 82.1278 19.3885C81.3854 19.7962 80.4972 20 79.4631 20ZM78.0064 18.1555H79.3736C80.0099 18.1555 80.5452 18.0429 80.9794 17.8175C81.4169 17.5888 81.745 17.2358 81.9638 16.7585C82.1858 16.2779 82.2969 15.6581 82.2969 14.8991C82.2969 14.1468 82.1858 13.532 81.9638 13.0547C81.745 12.5774 81.4186 12.2261 80.9844 12.0007C80.5502 11.7753 80.0149 11.6626 79.3786 11.6626H78.0064V18.1555ZM87.22 20H84.9132L88.4281 9.81818H91.2022L94.7122 20H92.4054L89.8549 12.1449H89.7754L87.22 20ZM87.0758 15.9979H92.5247V17.6783H87.0758V15.9979ZM104.816 14.9091C104.816 16.0194 104.605 16.964 104.184 17.7429C103.767 18.5218 103.197 19.1167 102.474 19.5277C101.755 19.9354 100.946 20.1392 100.048 20.1392C99.1431 20.1392 98.3311 19.9337 97.6119 19.5227C96.8926 19.1117 96.3242 18.5168 95.9066 17.7379C95.489 16.959 95.2802 16.0161 95.2802 14.9091C95.2802 13.7988 95.489 12.8542 95.9066 12.0753C96.3242 11.2964 96.8926 10.7031 97.6119 10.2955C98.3311 9.88447 99.1431 9.67898 100.048 9.67898C100.946 9.67898 101.755 9.88447 102.474 10.2955C103.197 10.7031 103.767 11.2964 104.184 12.0753C104.605 12.8542 104.816 13.7988 104.816 14.9091ZM102.633 14.9091C102.633 14.1899 102.525 13.5833 102.31 13.0895C102.098 12.5956 101.798 12.2211 101.41 11.9659C101.022 11.7107 100.568 11.5831 100.048 11.5831C99.5276 11.5831 99.0735 11.7107 98.6857 11.9659C98.2979 12.2211 97.9963 12.5956 97.7809 13.0895C97.5688 13.5833 97.4627 14.1899 97.4627 14.9091C97.4627 15.6283 97.5688 16.2348 97.7809 16.7287C97.9963 17.2225 98.2979 17.5971 98.6857 17.8523C99.0735 18.1075 99.5276 18.2351 100.048 18.2351C100.568 18.2351 101.022 18.1075 101.41 17.8523C101.798 17.5971 102.098 17.2225 102.31 16.7287C102.525 16.2348 102.633 15.6283 102.633 14.9091Z" fill="#8C91FF"/>
<path d="M27.9136 12.3093L17.7093 2.11501C16.2212 0.628331 13.8081 0.628331 12.32 2.11501L2.11568 12.3094C0.628106 13.7955 0.628105 16.2046 2.11568 17.6907L12.3199 27.885C12.3199 27.885 12.32 27.8851 12.32 27.8851C13.8081 29.3716 16.2212 29.3716 17.7093 27.8851L27.9136 12.3093ZM27.9136 12.3093C27.9136 12.3093 27.9136 12.3093 27.9136 12.3094C29.4011 13.7955 29.4011 16.2046 27.9136 17.6907C27.9136 17.6907 27.9136 17.6907 27.9136 17.6907L17.7094 27.885L27.9136 12.3093Z" stroke="#8C91FF" stroke-width="2"/>
<path d="M13.9211 12.4266L11.1373 22.3311L8.35355 12.4266H13.9211Z" stroke="#8C91FF" stroke-width="1.4"/>
<path d="M21.3405 16.9446H15.8507L18.5956 7.06744L21.3405 16.9446Z" stroke="#8C91FF" stroke-width="1.4"/>
</svg>
