<svg width="31" height="30" viewBox="0 0 31 30" fill="none" xmlns="http://www.w3.org/2000/svg">
<path d="M27.9136 12.3093L17.7093 2.11501C16.2212 0.628331 13.8081 0.628331 12.32 2.11501L2.11568 12.3094C0.628106 13.7955 0.628105 16.2046 2.11568 17.6907L12.3199 27.885C12.3199 27.885 12.32 27.8851 12.32 27.8851C13.8081 29.3716 16.2212 29.3716 17.7093 27.8851L27.9136 12.3093ZM27.9136 12.3093C27.9136 12.3093 27.9136 12.3093 27.9136 12.3094C29.4011 13.7955 29.4011 16.2046 27.9136 17.6907C27.9136 17.6907 27.9136 17.6907 27.9136 17.6907L17.7094 27.885L27.9136 12.3093Z" stroke="#8C91FF" stroke-width="2"/>
<path d="M13.9211 12.4266L11.1373 22.3311L8.35355 12.4266H13.9211Z" stroke="#8C91FF" stroke-width="1.4"/>
<path d="M21.3405 16.9446H15.8507L18.5956 7.06744L21.3405 16.9446Z" stroke="#8C91FF" stroke-width="1.4"/>
</svg>
