<svg width="19" height="24" viewBox="0 0 19 24" fill="none" xmlns="http://www.w3.org/2000/svg">
<path id="Vector" d="M17.0533 10.0597H15.3367V6.06546C15.3367 2.72028 12.6194 0 9.27611 0C5.93274 0 3.21234 2.72028 3.21234 6.06546V10.0597H1.49718C0.670266 10.0597 0 10.7303 0 11.5578V22.4939C0 23.3229 0.670266 23.9935 1.49718 23.9935H17.0548C17.882 23.9935 18.5506 23.3229 18.5506 22.4939V11.5578C18.5505 10.7302 17.8805 10.0597 17.0533 10.0597ZM10.1169 17.3108V19.6989C10.1169 19.8056 10.0286 19.8955 9.92036 19.8955H8.63332C8.52368 19.8955 8.43537 19.8055 8.43537 19.6989V17.3108C7.83068 17.0014 7.4118 16.3812 7.4118 15.6542C7.4118 14.6255 8.2465 13.7889 9.27464 13.7889C10.3043 13.7889 11.1391 14.6255 11.1391 15.6542C11.1405 16.3812 10.7216 17.0014 10.1169 17.3108ZM13.0109 10.0597H5.54117V6.16438C5.54117 4.10392 7.21819 2.42606 9.27752 2.42606C11.3368 2.42606 13.0108 4.10392 13.0108 6.16438L13.0109 10.0597Z" fill="#B3B5F2"/>
</svg>
