<svg width="24" height="24" viewBox="0 0 24 24" fill="none" xmlns="http://www.w3.org/2000/svg">
<path fill-rule="evenodd" clip-rule="evenodd" d="M6.24549 3.90452C6.4657 3.86911 6.69798 3.85082 6.94301 3.85082H16.0419C16.2883 3.85082 16.4902 3.86117 16.6689 3.89229C16.6818 3.89455 16.6949 3.89648 16.7079 3.89806C17.833 4.03483 18.7172 4.53011 19.3222 5.26313C19.9288 5.99793 20.2985 7.02501 20.2985 8.30084V8.99877H18.9965C18.9612 8.99877 18.926 8.99943 18.8909 9.00074C18.154 9.02768 17.4748 9.34314 16.9733 9.87773C16.3903 10.4769 16.0537 11.3403 16.1364 12.2644C16.2693 13.8983 17.6726 15.0011 19.1152 15.0011H20.2985V15.6992C20.2985 17.0949 19.857 18.1931 19.1422 18.9404C18.4275 19.6876 17.3769 20.1492 16.0419 20.1492H6.94301C5.60793 20.1492 4.55739 19.6876 3.84263 18.9404C3.12787 18.1931 2.68633 17.0949 2.68633 15.6992V8.30084C2.68633 7.03354 3.04971 6.01281 3.64686 5.28039C4.24237 4.54998 5.11296 4.05343 6.22351 3.90773L6.24549 3.90452ZM21.895 14.7964V15.6992C21.895 17.4742 21.3256 19.0182 20.2711 20.1205C19.2167 21.2229 17.7397 21.8182 16.0419 21.8182H6.94301C5.24513 21.8182 3.76821 21.2229 2.71375 20.1205C1.65929 19.0182 1.08984 17.4742 1.08984 15.6992V8.30084C1.08984 6.69336 1.55547 5.27264 2.43184 4.19775C3.30765 3.12353 4.55105 2.44761 6.01377 2.25317C6.31579 2.20522 6.62575 2.18182 6.94301 2.18182H16.0419C16.3151 2.18182 16.6115 2.19212 16.9113 2.24257C18.3863 2.42629 19.6435 3.09776 20.5309 4.17272C21.4206 5.25052 21.895 6.68075 21.895 8.30084V9.20344C22.4948 9.5174 22.9086 10.16 22.9086 10.9113V13.0885C22.9086 13.8399 22.4948 14.4824 21.895 14.7964ZM18.95 10.6686C18.6171 10.6806 18.3255 10.821 18.1126 11.0495L18.0983 11.0645C17.8375 11.3306 17.6921 11.7092 17.7287 12.111L17.7296 12.1208L17.7296 12.1208C17.7811 12.7672 18.3781 13.332 19.1178 13.332H21.0806C21.2228 13.3218 21.3121 13.2062 21.3121 13.0885V10.9113C21.3121 10.7939 21.2234 10.6787 21.0819 10.6679H18.9939C18.9792 10.6679 18.9646 10.6681 18.95 10.6686ZM6.14489 8.82926C6.14489 8.36838 6.50227 7.99476 6.94313 7.99476H13.009C13.4499 7.99476 13.8073 8.36838 13.8073 8.82926C13.8073 9.29014 13.4499 9.66376 13.009 9.66376H6.94313C6.50227 9.66376 6.14489 9.29014 6.14489 8.82926Z" fill="#FFF"/>
</svg>
