<svg width="14" height="14" viewBox="0 0 14 14" fill="none" xmlns="http://www.w3.org/2000/svg">
<g id="metamask-fox 2" clip-path="url(#clip0_82_7631)">
<g id="Group" filter="url(#filter0_d_82_7631)">
<path id="Vector" d="M13.1833 0.398438L7.92969 4.28576L8.90665 1.99483L13.1833 0.398438Z" fill="#E17726" stroke="#E17726" stroke-width="0.25" stroke-linecap="round" stroke-linejoin="round"/>
<g id="Group_2">
<path id="Vector_2" d="M1.0625 0.398438L6.26936 4.32204L5.3392 1.99483L1.0625 0.398438Z" fill="#E27625" stroke="#E27625" stroke-width="0.25" stroke-linecap="round" stroke-linejoin="round"/>
<path id="Vector_3" d="M11.2885 9.41406L9.89062 11.5495L12.8838 12.3736L13.7412 9.4607L11.2885 9.41406Z" fill="#E27625" stroke="#E27625" stroke-width="0.25" stroke-linecap="round" stroke-linejoin="round"/>
<path id="Vector_4" d="M0.507812 9.4607L1.36003 12.3736L4.34801 11.5495L2.95534 9.41406L0.507812 9.4607Z" fill="#E27625" stroke="#E27625" stroke-width="0.25" stroke-linecap="round" stroke-linejoin="round"/>
<path id="Vector_5" d="M4.19081 5.80633L3.35938 7.06065L6.32137 7.19541L6.22262 4.00781L4.19081 5.80633Z" fill="#E27625" stroke="#E27625" stroke-width="0.25" stroke-linecap="round" stroke-linejoin="round"/>
<path id="Vector_6" d="M10.0602 5.80357L7.99721 3.96875L7.92969 7.19265L10.8916 7.05789L10.0602 5.80357Z" fill="#E27625" stroke="#E27625" stroke-width="0.25" stroke-linecap="round" stroke-linejoin="round"/>
<path id="Vector_7" d="M4.35156 11.5446L6.14432 10.679L4.601 9.47656L4.35156 11.5446Z" fill="#E27625" stroke="#E27625" stroke-width="0.25" stroke-linecap="round" stroke-linejoin="round"/>
<path id="Vector_8" d="M8.10156 10.679L9.88912 11.5446L9.64492 9.47656L8.10156 10.679Z" fill="#E27625" stroke="#E27625" stroke-width="0.25" stroke-linecap="round" stroke-linejoin="round"/>
</g>
<path id="Vector_9" d="M9.88916 11.5452L8.10156 10.6797L8.24708 11.8407L8.23148 12.3331L9.88916 11.5452Z" fill="#D5BFB2" stroke="#D5BFB2" stroke-width="0.25" stroke-linecap="round" stroke-linejoin="round"/>
<path id="Vector_10" d="M4.35156 11.5452L6.01444 12.3331L6.00404 11.8407L6.14436 10.6797L4.35156 11.5452Z" fill="#D5BFB2" stroke="#D5BFB2" stroke-width="0.25" stroke-linecap="round" stroke-linejoin="round"/>
<path id="Vector_11" d="M6.04089 8.71428L4.55469 8.27892L5.60441 7.79688L6.04089 8.71428Z" fill="#233447" stroke="#233447" stroke-width="0.25" stroke-linecap="round" stroke-linejoin="round"/>
<path id="Vector_12" d="M8.20312 8.71428L8.63965 7.79688L9.69453 8.27892L8.20312 8.71428Z" fill="#233447" stroke="#233447" stroke-width="0.25" stroke-linecap="round" stroke-linejoin="round"/>
<path id="Vector_13" d="M4.34579 11.5495L4.60559 9.41406L2.95312 9.46074L4.34579 11.5495Z" fill="#CC6228" stroke="#CC6228" stroke-width="0.25" stroke-linecap="round" stroke-linejoin="round"/>
<path id="Vector_14" d="M9.64062 9.41406L9.89527 11.5495L11.2931 9.46074L9.64062 9.41406Z" fill="#CC6228" stroke="#CC6228" stroke-width="0.25" stroke-linecap="round" stroke-linejoin="round"/>
<path id="Vector_15" d="M10.8917 7.0625L7.92969 7.19726L8.20509 8.7159L8.64161 7.7985L9.69649 8.28054L10.8917 7.0625Z" fill="#CC6228" stroke="#CC6228" stroke-width="0.25" stroke-linecap="round" stroke-linejoin="round"/>
<path id="Vector_16" d="M4.55194 8.28054L5.60162 7.7985L6.03814 8.7159L6.31354 7.19726L3.35156 7.0625L4.55194 8.28054Z" fill="#CC6228" stroke="#CC6228" stroke-width="0.25" stroke-linecap="round" stroke-linejoin="round"/>
<path id="Vector_17" d="M3.35156 7.0625L4.59352 9.48302L4.55196 8.28054L3.35156 7.0625Z" fill="#E27525" stroke="#E27525" stroke-width="0.25" stroke-linecap="round" stroke-linejoin="round"/>
<path id="Vector_18" d="M9.6952 8.28054L9.64844 9.48302L10.8904 7.0625L9.6952 8.28054Z" fill="#E27525" stroke="#E27525" stroke-width="0.25" stroke-linecap="round" stroke-linejoin="round"/>
<path id="Vector_19" d="M6.3145 7.19531L6.03906 8.71399L6.38722 10.5073L6.46518 8.14383L6.3145 7.19531Z" fill="#E27525" stroke="#E27525" stroke-width="0.25" stroke-linecap="round" stroke-linejoin="round"/>
<path id="Vector_20" d="M7.92677 7.19531L7.78125 8.13867L7.85401 10.5073L8.20217 8.71399L7.92677 7.19531Z" fill="#E27525" stroke="#E27525" stroke-width="0.25" stroke-linecap="round" stroke-linejoin="round"/>
<path id="Vector_21" d="M8.19972 8.7088L7.85156 10.5022L8.101 10.6784L9.64436 9.47592L9.69112 8.27344L8.19972 8.7088Z" fill="#F5841F" stroke="#F5841F" stroke-width="0.25" stroke-linecap="round" stroke-linejoin="round"/>
<path id="Vector_22" d="M4.55469 8.27344L4.59629 9.47592L6.13961 10.6784L6.38905 10.5022L6.04089 8.7088L4.55469 8.27344Z" fill="#F5841F" stroke="#F5841F" stroke-width="0.25" stroke-linecap="round" stroke-linejoin="round"/>
<path id="Vector_23" d="M8.23852 12.3347L8.25412 11.8423L8.119 11.7283H6.13396L6.00404 11.8423L6.01444 12.3347L4.35156 11.5469L4.9336 12.0237L6.11316 12.8375H8.1346L9.3194 12.0237L9.8962 11.5469L8.23852 12.3347Z" fill="#C0AC9D" stroke="#C0AC9D" stroke-width="0.25" stroke-linecap="round" stroke-linejoin="round"/>
<path id="Vector_24" d="M8.1046 10.6841L7.85516 10.5078H6.38976L6.14032 10.6841L6 11.8451L6.12992 11.731H8.11496L8.25008 11.8451L8.1046 10.6841Z" fill="#161616" stroke="#161616" stroke-width="0.25" stroke-linecap="round" stroke-linejoin="round"/>
<path id="Vector_25" d="M13.4019 4.53972L13.8436 2.39393L13.1785 0.398438L8.10156 4.1562L10.0554 5.8044L12.8147 6.6078L13.4227 5.89772L13.1577 5.70592L13.5786 5.3224L13.2564 5.0736L13.6774 4.75224L13.4019 4.53972Z" fill="#763E1A" stroke="#763E1A" stroke-width="0.25" stroke-linecap="round" stroke-linejoin="round"/>
<path id="Vector_26" d="M0.398438 2.39393L0.845333 4.53972L0.559529 4.75224L0.985637 5.0736L0.663457 5.3224L1.08437 5.70592L0.819349 5.89772L1.42734 6.6078L4.18668 5.8044L6.14052 4.1562L1.06359 0.398438L0.398438 2.39393Z" fill="#763E1A" stroke="#763E1A" stroke-width="0.25" stroke-linecap="round" stroke-linejoin="round"/>
<path id="Vector_27" d="M12.8183 6.60809L10.059 5.80469L10.8904 7.05901L9.64844 9.47953L11.2905 9.45877H13.7432L12.8183 6.60809Z" fill="#F5841F" stroke="#F5841F" stroke-width="0.25" stroke-linecap="round" stroke-linejoin="round"/>
<path id="Vector_28" d="M4.1869 5.80469L1.42759 6.60809L0.507812 9.45877H2.95534L4.59742 9.47953L3.35547 7.05901L4.1869 5.80469Z" fill="#F5841F" stroke="#F5841F" stroke-width="0.25" stroke-linecap="round" stroke-linejoin="round"/>
<path id="Vector_29" d="M7.93155 7.19083L8.10823 4.15355L8.90851 1.99219H5.34375L6.14399 4.15355L6.32067 7.19083L6.38823 8.14451L6.39343 10.5028H7.85883L7.86403 8.14451L7.93155 7.19083Z" fill="#F5841F" stroke="#F5841F" stroke-width="0.25" stroke-linecap="round" stroke-linejoin="round"/>
</g>
</g>
<defs>
<filter id="filter0_d_82_7631" x="-3.72656" y="0.273438" width="21.6953" height="20.6895" filterUnits="userSpaceOnUse" color-interpolation-filters="sRGB">
<feFlood flood-opacity="0" result="BackgroundImageFix"/>
<feColorMatrix in="SourceAlpha" type="matrix" values="0 0 0 0 0 0 0 0 0 0 0 0 0 0 0 0 0 0 127 0" result="hardAlpha"/>
<feOffset dy="4"/>
<feGaussianBlur stdDeviation="2"/>
<feComposite in2="hardAlpha" operator="out"/>
<feColorMatrix type="matrix" values="0 0 0 0 0 0 0 0 0 0 0 0 0 0 0 0 0 0 0.25 0"/>
<feBlend mode="normal" in2="BackgroundImageFix" result="effect1_dropShadow_82_7631"/>
<feBlend mode="normal" in="SourceGraphic" in2="effect1_dropShadow_82_7631" result="shape"/>
</filter>
<clipPath id="clip0_82_7631">
<rect width="14" height="13.2" fill="white"/>
</clipPath>
</defs>
</svg>
