<svg xmlns="http://www.w3.org/2000/svg" width="15" height="15.042" viewBox="0 0 15 15.042"><defs><style>.a{fill:'';fill-rule:evenodd;}</style></defs><path class="a" d="M1.047,5.188a3.755,3.755,0,0,1,.893-2.77,3.755,3.755,0,0,1,2.77-.893h5.581a3.754,3.754,0,0,1,2.769.893,3.754,3.754,0,0,1,.893,2.77V8.677a3.754,3.754,0,0,1-.893,2.77,3.754,3.754,0,0,1-2.769.893H9.942a1.23,1.23,0,0,0-.975.486l0,0-1.047,1.4a.474.474,0,0,1-.837,0L6.037,12.83a1.216,1.216,0,0,0-.438-.354,1.247,1.247,0,0,0-.54-.136H4.709a4.187,4.187,0,0,1-2.795-.655c-.523-.458-.868-1.308-.868-3.007ZM4.709.479a4.776,4.776,0,0,0-3.51,1.2A4.776,4.776,0,0,0,0,5.188V8.677c0,1.789.353,3.032,1.225,3.795a5.15,5.15,0,0,0,3.484.914h.345l.018,0a.341.341,0,0,1,.061.024.327.327,0,0,1,.053.033l.01.008,1.047,1.4a1.512,1.512,0,0,0,2.512,0L9.8,13.458h0a.184.184,0,0,1,.141-.072h.349a4.776,4.776,0,0,0,3.51-1.2A4.776,4.776,0,0,0,15,8.677V5.188a4.777,4.777,0,0,0-1.2-3.51,4.776,4.776,0,0,0-3.51-1.2Zm5.579,6.1a.7.7,0,1,0,0,1.4h.006a.7.7,0,1,0,0-1.4Zm-3.488.7a.7.7,0,0,1,.7-.7H7.5a.7.7,0,1,1,0,1.4H7.5A.7.7,0,0,1,6.8,7.281Zm-2.093-.7a.7.7,0,1,0,0,1.4h.006a.7.7,0,1,0,0-1.4Z" transform="translate(0 -0.479)"/></svg>