<svg width="28" height="28" viewBox="0 0 28 28" fill="none" xmlns="http://www.w3.org/2000/svg">
<circle id="Ellipse 5" cx="14" cy="14" r="13" fill="white"/>
  <path d="M14 0C6.26967 0 0 6.26967 0 14C0 21.7303 6.26967 28 14 28C21.7303 28 28 21.7303 28 14C28 6.26967 21.7338 0 14 0ZM6.90667 14.4702L6.96617 14.3757L10.6097 8.67767C10.6219 8.65894 10.6389 8.64383 10.6589 8.63392C10.679 8.62401 10.7013 8.61966 10.7236 8.62133C10.7459 8.623 10.7673 8.63062 10.7856 8.6434C10.804 8.65619 10.8186 8.67366 10.8278 8.694C11.4345 10.0578 11.9618 11.7542 11.7145 12.81C11.6118 13.244 11.3237 13.832 10.9982 14.3757C10.9564 14.4552 10.9109 14.5327 10.8617 14.6078C10.8499 14.6246 10.8341 14.6382 10.8158 14.6473C10.7975 14.6565 10.7771 14.661 10.7567 14.6603H7.01517C6.99284 14.6607 6.97083 14.655 6.95148 14.6438C6.93213 14.6327 6.91616 14.6165 6.90528 14.597C6.89439 14.5775 6.88899 14.5554 6.88964 14.5331C6.8903 14.5107 6.89699 14.489 6.909 14.4702H6.90667ZM23.1397 16.4302C23.14 16.4551 23.1329 16.4795 23.1194 16.5005C23.106 16.5214 23.0866 16.5379 23.0638 16.548C22.7803 16.6682 21.8155 17.1138 21.4142 17.6703C20.3898 19.096 19.6082 21.1353 17.8582 21.1353H10.5618C9.94579 21.1344 9.33597 21.0121 8.76722 20.7754C8.19846 20.5387 7.68193 20.1922 7.24714 19.7558C6.81234 19.3194 6.46781 18.8016 6.23323 18.2319C5.99865 17.6623 5.87862 17.052 5.88 16.436V16.352C5.88 16.2843 5.936 16.2283 6.006 16.2283H10.0718C10.1535 16.2283 10.2118 16.3018 10.206 16.3823C10.1757 16.646 10.2258 16.9178 10.3518 17.164C10.5922 17.654 11.0938 17.9597 11.634 17.9597H13.6477V16.3882H11.655C11.6317 16.3879 11.6088 16.3813 11.5889 16.369C11.5691 16.3568 11.5529 16.3393 11.5422 16.3186C11.5316 16.2978 11.5267 16.2745 11.5283 16.2512C11.5299 16.2279 11.5378 16.2055 11.5512 16.1863L11.6247 16.0813C11.8113 15.8118 12.0808 15.3977 12.3492 14.924C12.5312 14.6043 12.7085 14.2637 12.8508 13.9207C12.8788 13.86 12.901 13.7958 12.9267 13.734C12.9652 13.6243 13.0048 13.5217 13.0328 13.4202C13.0603 13.3341 13.0856 13.2474 13.1087 13.16C13.1752 12.8683 13.2032 12.5603 13.2032 12.2418C13.2032 12.1158 13.1985 11.984 13.1868 11.8603C13.181 11.7238 13.1635 11.5862 13.1472 11.4497C13.1341 11.3275 13.1154 11.2061 13.0912 11.0857C13.0598 10.9023 13.0216 10.7202 12.9768 10.5397L12.9605 10.4697C12.9255 10.3437 12.8952 10.2247 12.8555 10.0998C12.7444 9.71648 12.6167 9.33812 12.4728 8.96583C12.4227 8.8258 12.3674 8.68765 12.3072 8.55167C12.2232 8.344 12.1368 8.15617 12.0587 7.98C12.0198 7.90453 11.9832 7.82788 11.949 7.75017C11.9111 7.66633 11.871 7.58347 11.8288 7.50167C11.8008 7.43983 11.767 7.38033 11.7448 7.32433L11.4987 6.87167C11.4648 6.80983 11.5208 6.734 11.5885 6.75383L13.1285 7.17033H13.1402L13.342 7.22867L13.566 7.29167L13.6477 7.31383V6.40033C13.6477 5.95817 14 5.6 14.4398 5.6C14.5437 5.59972 14.6465 5.62046 14.7422 5.66096C14.8378 5.70146 14.9243 5.76088 14.9963 5.83567C15.1453 5.98591 15.2291 6.18876 15.2297 6.40033V7.75833L15.3942 7.80383C15.4058 7.80967 15.4198 7.8155 15.4303 7.82367C15.47 7.85167 15.5283 7.896 15.6018 7.952C15.6602 7.99633 15.722 8.05233 15.7943 8.11183C16.0247 8.29953 16.2481 8.49566 16.464 8.69983C16.7137 8.932 16.9937 9.20383 17.262 9.506C17.3378 9.59233 17.4102 9.67633 17.486 9.76967C17.5583 9.86183 17.64 9.95167 17.7077 10.0403C17.7998 10.1617 17.8943 10.2877 17.9818 10.4183C18.0203 10.4802 18.0682 10.5443 18.1043 10.6062C18.2163 10.7718 18.312 10.9422 18.4042 11.1137C18.4438 11.1918 18.4823 11.2782 18.5162 11.3622C18.62 11.592 18.7017 11.8242 18.7518 12.0598C18.7684 12.1099 18.7798 12.1615 18.7857 12.2138V12.2255C18.802 12.292 18.8078 12.3655 18.8137 12.4402C18.8465 12.785 18.8043 13.1329 18.69 13.4598C18.6538 13.5578 18.62 13.6582 18.5757 13.7562C18.4882 13.9545 18.3878 14.1563 18.2677 14.3418C18.228 14.4118 18.1802 14.4842 18.1358 14.5542C18.0857 14.6277 18.032 14.6977 17.9877 14.7642C17.9235 14.8525 17.8562 14.9385 17.7858 15.022C17.724 15.106 17.6622 15.19 17.5922 15.2658C17.4977 15.3802 17.4055 15.4875 17.3063 15.5902C17.2503 15.6578 17.1897 15.7278 17.1243 15.7885C17.0637 15.8585 16.9983 15.9203 16.9423 15.9763C16.8443 16.0743 16.7673 16.1478 16.6997 16.212L16.5398 16.3543C16.5176 16.3767 16.4874 16.3893 16.4558 16.3893H15.2297V17.9597H16.772C17.1162 17.9597 17.444 17.8383 17.71 17.612C17.7998 17.5338 18.1942 17.192 18.662 16.6763C18.6772 16.6588 18.6977 16.6465 18.7203 16.6413L22.9787 15.4082C22.9974 15.4028 23.0171 15.4018 23.0362 15.4052C23.0554 15.4087 23.0734 15.4166 23.089 15.4282C23.1046 15.4399 23.1173 15.455 23.1261 15.4723C23.1349 15.4897 23.1395 15.5089 23.1397 15.5283V16.4302Z" fill="#745CD4" />
</svg>