<svg width="28" height="28" viewBox="0 0 28 28" fill="none" xmlns="http://www.w3.org/2000/svg">
<circle cx="14" cy="14" r="14" fill="white" fill-opacity="0.1"/>
<path d="M11.6984 14.5158H8.35801C9.33228 12.8224 11.3365 9.35216 11.5592 9.01812C13.3685 11.5234 12.0463 14.0286 11.6984 14.5158Z" fill="white"/>
<path d="M16.6393 15.7684H12.3247C14.9691 11.7322 13.0206 9.01812 12.0463 7.6959C21.789 9.85321 17.3352 15.6988 16.6393 15.7684Z" fill="white"/>
<path d="M11.0047 15.838H8.01232C7.80355 18.6216 10.3065 19.7351 11.1439 19.7351C13.2316 19.7583 17.4187 19.7907 18.0311 19.7351C18.7966 19.6655 19.5772 18.7608 19.9123 18.0649C20.636 16.5617 21.6057 15.9076 22 15.7684V14.9333C21.6498 15.0029 20.0492 15.2813 19.4229 15.4204C18.5965 15.6041 18.3117 15.9772 18.1725 16.1164C18.0333 16.2555 17.6135 17.021 17.0591 17.021H11.631C11.1439 17.021 11.0047 16.6035 11.0047 16.3947V15.838Z" fill="white"/>
<path d="M13.7165 7.6959C13.7165 7.31157 14.028 7 14.4124 7C14.7967 7 15.1083 7.31157 15.1083 7.6959V17.4386H13.7165V7.6959Z" fill="white"/>
</svg>
