<svg width="17" height="17" viewBox="0 0 17 17" fill="none" xmlns="http://www.w3.org/2000/svg">
<g clip-path="url(#clip0_122507_8306)">
<path d="M16.2719 9.85742C16.067 9.85742 15.8714 9.95042 15.7316 10.1178C15.5826 10.2945 15.4988 10.5456 15.4988 10.8525V13.661C15.4988 14.1818 15.2938 14.6747 14.9119 15.0467C14.53 15.4187 14.0363 15.6233 13.5053 15.6233H3.49165C2.96069 15.6233 2.45768 15.4187 2.08507 15.0467C1.71247 14.6747 1.49822 14.1818 1.49822 13.661V10.8525C1.49822 10.2108 1.12562 9.87602 0.753018 9.87602C0.380415 9.87602 0.0078125 10.2108 0.0078125 10.8525V13.661C0.0078125 14.6096 0.38973 15.521 1.06042 16.1441C1.64726 16.7021 2.4111 16.9997 3.2122 16.9997C3.2774 16.9997 3.33329 16.9997 3.3985 16.9904H13.5053C13.524 16.9904 13.5333 16.9904 13.5519 16.9904C13.999 16.9904 14.4369 16.9067 14.8467 16.7393C15.2752 16.5626 15.6571 16.3115 15.9832 15.9953C16.3092 15.6698 16.5607 15.2978 16.7377 14.87C16.9147 14.4422 16.9985 13.9958 16.9892 13.5494V10.7409C16.9985 10.1643 16.6352 9.85742 16.2719 9.85742Z" fill="#B3B5F2"/>
<path d="M8.55318 14.8331C12.065 14.8331 14.9061 13.2243 15.0178 11.1597V3.87801C15.0178 1.70186 12.1302 0 8.4414 0C6.04743 0 3.88633 0.743982 2.79647 1.94365C2.26551 2.53884 2.02332 3.20842 2.08852 3.87801V11.1597C2.2003 13.2243 5.0414 14.8331 8.55318 14.8331ZM3.42058 11.1597V10.9551C4.5477 11.9037 6.35482 12.4431 8.45071 12.4431C10.6584 12.4431 12.6704 11.8758 13.7976 10.9551V11.1411C13.4436 12.4803 10.705 13.4103 8.45071 13.4103C5.92633 13.4103 3.71866 12.4059 3.42058 11.1597ZM13.7882 8.95569C13.4343 10.2949 10.6956 11.2248 8.4414 11.2248C5.91701 11.2248 3.70934 10.2205 3.41126 8.97429V8.74179C4.27756 9.37418 5.93564 10.2577 8.4414 10.2577C10.6491 10.2577 12.6611 9.69037 13.7882 8.76969V8.95569ZM8.55318 8.93709C5.93564 8.93709 3.72797 7.96061 3.42058 6.68654V6.37965C4.5477 7.32823 6.35482 7.86761 8.45071 7.86761C10.7608 7.86761 12.7822 7.26313 13.9839 6.20295H14.0025V6.66794C13.6765 7.87691 11.1428 8.93709 8.55318 8.93709ZM8.45071 6.44475C5.48852 6.44475 3.42058 5.15208 3.42058 3.98961C3.42058 2.88293 4.97619 1.26477 8.31099 1.21827H8.45071C11.8693 1.21827 13.6858 2.82713 13.6858 3.98961C13.6858 5.15208 11.534 6.44475 8.45071 6.44475Z" fill="#B3B5F2"/>
</g>
<defs>
<clipPath id="clip0_122507_8306">
<rect width="17" height="17" fill="white"/>
</clipPath>
</defs>
</svg>
