<svg width="48" height="26" viewBox="0 0 48 26" fill="none" xmlns="http://www.w3.org/2000/svg">
<g id="Pro">
<rect id="Rectangle 1731" width="48" height="26" rx="13" fill="url(#paint0_linear_213_2873)"/>
<g id="Pro_2">
<path id="&#229;&#189;&#162;&#231;&#138;&#182;" d="M16.7658 6C18.0664 6.01236 19.07 6.31833 19.7765 6.9179C20.4831 7.51747 20.8363 8.37974 20.8363 9.50471C20.8363 9.81377 20.8238 10.0548 20.7988 10.2279L20.6863 11.1736C20.5112 12.5335 19.986 13.575 19.1106 14.2982C18.2352 15.0214 17.066 15.3892 15.6028 15.4015H11.7762L11.2135 19.9261H9L10.7257 6H16.7658ZM15.903 13.3617C16.6783 13.3494 17.2723 13.1794 17.685 12.8518C18.0977 12.5242 18.354 12.0019 18.4541 11.2849L18.6041 10.1537C18.6166 10.0672 18.6229 9.94975 18.6229 9.80141C18.6229 9.19565 18.4572 8.7537 18.1258 8.47555C17.7944 8.1974 17.2786 8.05214 16.5783 8.03978H12.6953L12.02 13.3617H15.903Z" fill="white"/>
<path id="&#232;&#183;&#175;&#229;&#190;&#132;" d="M28.2307 11.6208C27.4554 11.5961 26.9552 11.5838 26.7301 11.5838C25.9297 11.5838 25.3295 11.7723 24.9293 12.1493C24.5291 12.5264 24.279 13.1476 24.179 14.0129L23.4287 19.9283H21.2715L22.003 14.0686C22.1906 12.4986 22.669 11.3612 23.438 10.6566C24.2071 9.95193 25.3858 9.59961 26.9739 9.59961C27.5992 9.59961 28.1307 9.61815 28.5684 9.65524L28.2307 11.6208Z" fill="white"/>
<path id="&#229;&#189;&#162;&#231;&#138;&#182;_2" d="M28.9577 13.9924C29.3204 11.0131 30.9773 9.52344 33.9286 9.52344H34.829C37.4176 9.52344 38.7119 10.6979 38.7119 13.0467C38.7119 13.331 38.6932 13.6401 38.6556 13.9739L38.4681 15.5315C38.1054 18.5108 36.4484 20.0005 33.4972 20.0005H32.5968C30.0082 20.0005 28.7139 18.8261 28.7139 16.4772C28.7139 16.1929 28.7326 15.8838 28.7701 15.5501L28.9577 13.9924ZM33.741 18.0163C35.2417 18.0163 36.092 17.2066 36.2921 15.5871L36.4985 13.9182C36.5235 13.671 36.536 13.4979 36.536 13.399C36.536 12.1381 35.8857 11.5076 34.5851 11.5076H33.6848C32.1841 11.5076 31.3337 12.3173 31.1337 13.9368L30.9273 15.6057C30.9023 15.8529 30.8898 16.026 30.8898 16.1249C30.8898 17.3859 31.5401 18.0163 32.8406 18.0163H33.741Z" fill="white"/>
</g>
</g>
<defs>
<linearGradient id="paint0_linear_213_2873" x1="39" y1="-9.00947e-07" x2="9.9837" y2="21.555" gradientUnits="userSpaceOnUse">
<stop stop-color="#B5B3F2"/>
<stop offset="1" stop-color="#666CED"/>
</linearGradient>
</defs>
</svg>
