<svg width="34" height="34" viewBox="0 0 34 34" fill="none" xmlns="http://www.w3.org/2000/svg">
<g id="Group 3664">
<rect id="Rectangle 251" width="34" height="34" rx="5" fill="#282F41"/>
<path id="Vector" d="M9.97674 8H23.0233C24.1105 8 25 8.81831 25 9.81846V11.8188C25 12.5461 24.5058 13.4554 24.0116 13.91L19.7616 17.3651C19.1686 17.8197 18.7733 18.7289 18.7733 19.4563V23.366C18.7733 23.9115 18.3779 24.6389 17.8837 24.9117L16.5 25.73C15.2151 26.4574 13.436 25.6391 13.436 24.1843V19.3654C13.436 18.7289 13.0407 17.9106 12.6453 17.456L8.88954 13.8191C8.39535 13.3645 8 12.5461 8 12.0006V9.90938C8 8.81831 8.88953 8 9.97674 8Z" fill="#282F41" stroke="#B3B5F2" stroke-width="1.5" stroke-miterlimit="10" stroke-linecap="round" stroke-linejoin="round"/>
</g>
</svg>
