<svg width="106" height="105" viewBox="0 0 106 105" fill="none" xmlns="http://www.w3.org/2000/svg">
<path id="rect828" fill-rule="evenodd" clip-rule="evenodd" d="M52.5 9.00159e-07C23.5341 -0.00531498 0 23.5347 0 52.5C0 81.4653 23.5347 105 52.5 105C63.6813 105 74.0607 101.485 82.5781 95.52C85.3883 93.6235 82.4567 89.4334 79.7119 91.4233C72.0001 96.8243 62.635 100 52.5 100C26.2369 100 5 78.7631 5 52.5C5 26.2369 26.2374 4.99518 52.5 5C65.245 5.00234 77.4314 10.1433 86.3501 19.2236L82.8125 22.7612C74.8364 14.6229 63.9195 10.003 52.5 10C46.8655 9.99854 41.4844 11.1077 36.5625 13.1006C33.3569 14.3003 35.2996 19.1014 38.4375 17.7344C42.783 15.9748 47.5212 14.9987 52.5 15C62.5919 15.0026 72.2347 19.0909 79.2774 26.2964L51.6113 53.9624C49.8932 52.2442 45.7176 48.071 42.771 45.1245C39.8635 42.2171 35.0657 42.217 32.1582 45.1245C29.2508 48.032 29.2508 52.8274 32.1582 55.7349L46.3037 69.8706C49.2112 72.7781 53.9993 72.7781 56.9067 69.8706C67.1154 59.662 77.3233 49.4541 87.5318 39.2456C89.1433 43.4698 89.9976 47.9581 90 52.5024C90.0114 73.2411 73.2403 90 52.5 90C31.7597 90 15 73.2403 15 52.5C15 47.5221 15.9774 42.7832 17.7368 38.4375C19.1039 35.2996 14.3028 33.3569 13.103 36.5625C11.1105 41.4839 10 46.8662 10 52.5C10 75.9425 29.0575 95 52.5 95C75.9425 95 95.0126 75.9417 95 52.4976C94.9969 46.5969 93.7292 40.789 91.355 35.4224C92.6136 34.1638 93.8733 32.9065 95.1319 31.6479C98.3069 38.1232 99.9984 45.2469 100 52.5C100.002 62.6349 96.825 72.0006 91.4234 79.7119C89.4334 82.4567 93.6235 85.3883 95.52 82.5781C101.486 74.0613 105.002 63.6823 105 52.5C104.998 43.9065 102.876 35.468 98.8623 27.915C100.197 26.58 101.534 25.2462 102.869 23.9111C105.776 21.0037 105.776 16.2156 102.869 13.3081C101.415 11.8544 99.4956 11.1206 97.5708 11.1206C95.646 11.1206 93.7194 11.8544 92.2656 13.3081L89.8853 15.6885C80.0326 5.67535 66.571 0.00258353 52.5 9.00159e-07ZM97.5684 16.084C98.1994 16.084 98.8286 16.3359 99.3335 16.8408C100.343 17.8507 100.343 19.3661 99.3335 20.376C84.0129 35.6967 68.6947 51.0172 53.374 66.3379C52.3641 67.3478 50.8488 67.3478 49.8389 66.3379L35.6934 52.2021C34.6835 51.1922 34.6835 49.6671 35.6934 48.6572C36.7033 47.6473 38.2259 47.6473 39.2358 48.6572C42.7714 52.1927 49.8389 59.27 49.8389 59.27C50.3077 59.7387 50.9435 60.002 51.6065 60.002C52.2694 60.002 52.9052 59.7387 53.374 59.27L95.8008 16.8408C96.3058 16.3359 96.9373 16.084 97.5684 16.084ZM87.8931 85.3564C87.5584 85.351 87.2261 85.4128 86.9157 85.5382C86.6054 85.6636 86.3234 85.85 86.0864 86.0864C85.854 86.3186 85.6696 86.5943 85.5438 86.8978C85.4179 87.2013 85.3532 87.5267 85.3532 87.8552C85.3532 88.1838 85.4179 88.5091 85.5438 88.8126C85.6696 89.1161 85.854 89.3918 86.0864 89.624C86.3186 89.8565 86.5944 90.0409 86.8979 90.1667C87.2014 90.2925 87.5267 90.3573 87.8552 90.3573C88.1838 90.3573 88.5091 90.2925 88.8126 90.1667C89.1161 90.0409 89.3919 89.8565 89.624 89.624C89.8565 89.3918 90.0409 89.1161 90.1667 88.8126C90.2925 88.5091 90.3573 88.1838 90.3573 87.8552C90.3573 87.5267 90.2925 87.2013 90.1667 86.8978C90.0409 86.5943 89.8565 86.3186 89.624 86.0864C89.1639 85.6273 88.543 85.3655 87.8931 85.3564Z" fill="#745CD5"/>
</svg>
