<svg width="14" height="12" viewBox="0 0 14 12" fill="none" xmlns="http://www.w3.org/2000/svg">
<path d="M9.9985 1.19763H3.99549C1.69635 1.19763 1.05403 1.74991 1 3.89898C2.15858 3.89898 3.09505 4.84145 3.09505 6.00003C3.09505 7.15861 2.15858 8.09507 1 8.10108C1.05403 10.2501 1.69635 10.8024 3.99549 10.8024H9.9985C12.3997 10.8024 13 10.2021 13 7.80093V4.19913C13 1.79793 12.3997 1.19763 9.9985 1.19763Z" stroke="#B3B5F2" stroke-linecap="round" stroke-linejoin="round"/>
<path d="M5.19531 1.19763V3.29868" stroke="#B3B5F2" stroke-linecap="round" stroke-linejoin="round"/>
<path d="M5.19531 8.70129V10.8023" stroke="#B3B5F2" stroke-linecap="round" stroke-linejoin="round"/>
<path d="M8.81466 4.39726L9.18684 5.14763C9.22286 5.21966 9.2949 5.27369 9.37294 5.2857L10.2013 5.40576C10.4055 5.43577 10.4895 5.6879 10.3394 5.83197L9.73912 6.41426C9.67909 6.46829 9.65508 6.55233 9.66708 6.63637L9.81115 7.45878C9.84717 7.66288 9.63106 7.81896 9.45097 7.72291L8.71261 7.33272C8.64057 7.2967 8.55053 7.2967 8.47849 7.33272L7.74012 7.72291C7.55403 7.81896 7.34392 7.66288 7.37994 7.45878L7.52401 6.63637C7.53602 6.55233 7.51201 6.47429 7.45198 6.41426L6.85768 5.83197C6.70761 5.6879 6.79165 5.43577 6.99575 5.40576L7.82416 5.2857C7.90821 5.27369 7.97424 5.22567 8.01026 5.14763L8.37644 4.39726C8.46048 4.21117 8.72461 4.21117 8.81466 4.39726Z" stroke="#B3B5F2" stroke-linecap="round" stroke-linejoin="round"/>
</svg>
