<svg width="14" height="14" viewBox="0 0 14 14" fill="none" xmlns="http://www.w3.org/2000/svg">
<path d="M2.19577 8.59575L1.28012 7.6801C0.906627 7.30661 0.906627 6.69215 1.28012 6.31866L2.19577 5.403C2.3524 5.24638 2.4789 4.93915 2.4789 4.72228V3.4271C2.4789 2.89699 2.91263 2.46327 3.44275 2.46327H4.73791C4.95478 2.46327 5.26201 2.33678 5.41863 2.18016L6.33428 1.26449C6.70777 0.891002 7.32223 0.891002 7.69572 1.26449L8.61137 2.18016C8.76799 2.33678 9.07522 2.46327 9.29209 2.46327H10.5873C11.1174 2.46327 11.5511 2.89699 11.5511 3.4271V4.72228C11.5511 4.93915 11.6776 5.24638 11.8342 5.403L12.7499 6.31866C13.1234 6.69215 13.1234 7.30661 12.7499 7.6801L11.8342 8.59575C11.6776 8.75237 11.5511 9.0596 11.5511 9.27647V10.5716C11.5511 11.1017 11.1174 11.5355 10.5873 11.5355H9.29209C9.07522 11.5355 8.76799 11.662 8.61137 11.8186L7.69572 12.7343C7.32223 13.1078 6.70777 13.1078 6.33428 12.7343L5.41863 11.8186C5.26201 11.662 4.95478 11.5355 4.73791 11.5355H3.44275C2.91263 11.5355 2.4789 11.1017 2.4789 10.5716V9.27647C2.4789 9.05358 2.3524 8.74635 2.19577 8.59575Z" stroke="#B3B5F2" stroke-linecap="round" stroke-linejoin="round"/>
<path d="M5.21875 8.79997L8.83317 5.18555" stroke="#B3B5F2" stroke-linecap="round" stroke-linejoin="round"/>
<path d="M8.52344 8.5H8.52886" stroke="#B3B5F2" stroke-linecap="round" stroke-linejoin="round"/>
<path d="M5.51562 5.48633H5.52105" stroke="#B3B5F2" stroke-linecap="round" stroke-linejoin="round"/>
</svg>
