<?xml version="1.0" standalone="no"?><!DOCTYPE svg PUBLIC "-//W3C//DTD SVG 1.1//EN" "http://www.w3.org/Graphics/SVG/1.1/DTD/svg11.dtd"><svg t="1710727240054" class="icon" viewBox="0 0 1024 1024" version="1.1" xmlns="http://www.w3.org/2000/svg" p-id="1030" xmlns:xlink="http://www.w3.org/1999/xlink" width="200" height="200"><path d="M650.971429 7.314286H373.028571c-256 0-365.714286 109.714286-365.714285 365.714285v277.942858c0 256 109.714286 365.714286 365.714285 365.714285h277.942858c256 0 365.714286-109.714286 365.714285-365.714285V373.028571c0-256-109.714286-365.714286-365.714285-365.714285z m292.571428 643.657143c0 212.114286-73.142857 292.571429-292.571428 292.571428H373.028571c-212.114286 0-292.571429-73.142857-292.571428-292.571428V373.028571c0-212.114286 73.142857-292.571429 292.571428-292.571428h277.942858c212.114286 0 292.571429 73.142857 292.571428 292.571428v277.942858z" p-id="1031"></path><path d="M577.828571 453.485714c14.628571 43.885714 51.2 73.142857 102.4 73.142857 58.514286 0 109.714286-51.2 109.714286-109.714285S731.428571 307.2 672.914286 307.2c-43.885714 0-87.771429 29.257143-102.4 73.142857h-292.571429V277.942857c0-21.942857-14.628571-36.571429-36.571428-36.571428s-36.571429 14.628571-36.571429 36.571428v270.628572c0 102.4 80.457143 182.857143 182.857143 182.857142h190.171428c14.628571 36.571429 51.2 65.828571 95.085715 65.828572 58.514286 0 109.714286-51.2 109.714285-109.714286S731.428571 585.142857 672.914286 585.142857c-43.885714 0-87.771429 29.257143-95.085715 73.142857H387.657143c-58.514286 0-109.714286-43.885714-109.714286-109.714285V453.485714h299.885714z m95.085715-73.142857c21.942857 0 36.571429 14.628571 36.571428 36.571429s-14.628571 29.257143-36.571428 29.257143c-14.628571 0-29.257143-14.628571-29.257143-29.257143s14.628571-36.571429 29.257143-36.571429z m0 277.942857c21.942857 0 36.571429 14.628571 36.571428 36.571429s-14.628571 36.571429-36.571428 36.571428c-14.628571-7.314286-29.257143-21.942857-29.257143-36.571428 0-21.942857 14.628571-36.571429 29.257143-36.571429z" p-id="1032"></path></svg>