<svg width="40" height="40" viewBox="0 0 40 40" fill="none" xmlns="http://www.w3.org/2000/svg">
<circle cx="20" cy="20" r="20" fill="white" fill-opacity="0.1"/>
<path d="M29.3238 18.3402C29.2097 17.7357 28.8415 17.3451 28.3857 17.3451C28.3799 17.3451 28.374 17.3451 28.3708 17.3452H28.2869C26.9689 17.3452 25.8966 16.2703 25.8966 14.9489C25.8966 14.5201 26.103 14.0394 26.1047 14.0352C26.3409 13.5022 26.1592 12.8486 25.6825 12.5151L25.6536 12.4948L23.2313 11.1457L23.2006 11.1322C23.0428 11.0634 22.8702 11.0286 22.6873 11.0286C22.3126 11.0286 21.9441 11.1794 21.7017 11.4316C21.436 11.7066 20.519 12.4914 19.8143 12.4914C19.1033 12.4914 18.1808 11.6912 17.9139 11.4111C17.6703 11.1537 17.2988 11 16.9203 11C16.7411 11 16.5715 11.0336 16.4164 11.1L16.385 11.1133L13.8771 12.4944L13.8475 12.515C13.3692 12.8481 13.1865 13.5012 13.4224 14.0339C13.4245 14.0387 13.6311 14.5168 13.6311 14.9489C13.6311 16.2702 12.5589 17.3452 11.2409 17.3452H11.1583C11.1526 17.3451 11.1469 17.345 11.1412 17.345C10.6859 17.345 10.318 17.7356 10.2039 18.3403C10.1956 18.3846 10 19.4357 10 20.2577C10 21.0798 10.1956 22.1308 10.2039 22.1752C10.3181 22.7798 10.6862 23.1704 11.1418 23.1704C11.1476 23.1704 11.1536 23.1703 11.157 23.1702H11.2409C12.5589 23.1702 13.6311 24.2452 13.6311 25.5665C13.6311 25.9958 13.4249 26.4759 13.423 26.4801C13.187 27.0127 13.3682 27.6663 13.8447 28.0007L13.873 28.0205L16.2492 29.3527L16.2794 29.366C16.4371 29.4354 16.6093 29.4706 16.7912 29.4706C17.1712 29.4706 17.5424 29.3133 17.7841 29.0498C18.1216 28.6821 19.0372 27.9229 19.7135 27.9229C20.4457 27.9229 21.3847 28.774 21.6557 29.0718C21.898 29.3398 22.2717 29.4999 22.6555 29.5H22.6556C22.8339 29.5 23.003 29.466 23.1583 29.3988L23.1892 29.3855L25.6522 28.0207L25.6814 28.0003C26.1589 27.6668 26.3411 27.0137 26.1056 26.4822C26.1035 26.4773 25.8966 25.9928 25.8966 25.5665C25.8966 24.2452 26.9689 23.1702 28.2869 23.1702L28.3683 23.1702C28.3737 23.1703 28.3791 23.1704 28.3845 23.1704C28.8411 23.1703 29.2097 22.7797 29.3237 22.1756C29.3257 22.1649 29.5278 21.1003 29.5278 20.2577C29.5278 19.4318 29.3321 18.3844 29.3238 18.3402ZM16.8036 28.0873L14.725 26.922C14.8166 26.6862 15.0033 26.1357 15.0033 25.5665C15.0033 23.5901 13.4861 21.956 11.5322 21.8057C11.4845 21.5269 11.3722 20.8125 11.3722 20.2578C11.3722 19.7038 11.4844 18.9887 11.5321 18.7097C13.4861 18.5595 15.0033 16.9255 15.0033 14.9489C15.0033 14.3812 14.8176 13.8323 14.7262 13.5963L16.9381 12.3784C16.9381 12.3784 16.9382 12.3784 16.9382 12.3784C17.0179 12.4601 17.3369 12.7774 17.7774 13.0921C18.497 13.6064 19.1823 13.8671 19.8143 13.8671C20.44 13.8671 21.1198 13.6114 21.835 13.1071C22.2726 12.7984 22.5901 12.4872 22.6696 12.407C22.6698 12.4069 22.6699 12.4069 22.6701 12.4069L24.8023 13.5945C24.7108 13.8304 24.5244 14.3805 24.5244 14.9489C24.5244 16.9255 26.0416 18.5596 27.9956 18.7098C28.0433 18.9891 28.1555 19.7055 28.1555 20.2578C28.1555 20.8123 28.0433 21.527 27.9956 21.8058C26.0416 21.956 24.5245 23.5901 24.5245 25.5667C24.5245 26.1349 24.7104 26.6843 24.8019 26.9201L22.643 28.1163C22.5498 28.0171 22.2356 27.6941 21.8006 27.3702C21.067 26.8241 20.3648 26.5472 19.7135 26.5472C19.0684 26.5472 18.3715 26.8189 17.6421 27.3548C17.2134 27.6699 16.897 27.9897 16.8036 28.0873ZM23.18 20.2451C23.18 18.3333 21.6286 16.7779 19.7216 16.7779C17.8146 16.7779 16.2632 18.3333 16.2632 20.2451C16.2632 22.1569 17.8146 23.7122 19.7216 23.7122C21.6286 23.7122 23.18 22.1569 23.18 20.2451ZM19.7216 18.1537C20.8719 18.1537 21.8078 19.0919 21.8078 20.2451C21.8078 21.3983 20.8719 22.3366 19.7216 22.3366C18.5713 22.3366 17.6355 21.3983 17.6355 20.2451C17.6355 19.0918 18.5713 18.1537 19.7216 18.1537Z" fill="#F3F3F3" stroke="#F3F3F3" stroke-width="0.4"/>
</svg>
