<svg width="26" height="26" viewBox="0 0 26 26" fill="none" xmlns="http://www.w3.org/2000/svg">
<g id="&#229;&#136;&#134;&#228;&#186;&#171;">
<g id="Vector">
<path d="M17.585 20.787H7.3484C6.05364 20.787 5 19.7334 5 18.4386V8.20199C5 6.90723 6.05188 5.85359 7.34488 5.85359H12.4664V7.13369H7.34488C6.75764 7.13369 6.28009 7.61299 6.28009 8.20199V18.4386C6.28009 19.0276 6.7594 19.5069 7.3484 19.5069H17.585C18.1741 19.5069 18.6534 19.03 18.6534 18.4433V14.1736H19.9335V18.4433C19.9335 19.7357 18.8798 20.787 17.585 20.787Z" fill="#B3B5F2"/>
<path d="M20.36 11.827C20.0068 11.827 19.7199 11.5407 19.7199 11.1869V6.49481C19.7199 6.37689 19.6255 6.28009 19.5099 6.28009H14.6001C14.2469 6.28009 13.9601 5.9938 13.9601 5.64005C13.9601 5.28629 14.2469 5 14.6001 5H19.5099C20.3318 5 21 5.67055 21 6.49481V11.1869C21 11.5407 20.7131 11.827 20.36 11.827Z" fill="#B3B5F2"/>
<path d="M11.6099 15.0301C11.4462 15.0301 11.282 14.968 11.157 14.843C10.9071 14.5931 10.9071 14.1883 11.157 13.9378L19.0535 6.04074C19.3034 5.79082 19.7082 5.79082 19.9587 6.04074C20.2092 6.29065 20.2086 6.69604 19.9587 6.94595L12.0622 14.8424C11.9373 14.9674 11.7742 15.0301 11.6099 15.0301Z" fill="#B3B5F2"/>
</g>
</g>
</svg>
