<svg width="110" height="110" viewBox="0 0 110 110" fill="none" xmlns="http://www.w3.org/2000/svg">
<g id="smiley 1" clip-path="url(#clip0_125534_7618)">
<g id="Group">
<g id="Group_2">
<path id="Vector" d="M97.631 14.8073L99.4245 19.8503C99.5012 20.0662 99.6534 20.2372 99.8452 20.3238L104.326 22.3425C104.958 22.6278 104.958 23.6363 104.326 23.9214L99.8452 25.94C99.6534 26.0264 99.5015 26.1976 99.4245 26.4136L97.631 31.4566C97.3777 32.169 96.4816 32.169 96.2283 31.4566L94.4348 26.4136C94.3581 26.1976 94.206 26.0266 94.0141 25.94L89.5338 23.9214C88.9008 23.6363 88.9008 22.6276 89.5338 22.3425L94.0141 20.3238C94.206 20.2374 94.3579 20.0662 94.4348 19.8503L96.2283 14.8073C96.4816 14.0948 97.3775 14.0948 97.631 14.8073Z" fill="#745CD4"/>
<path id="Vector_2" d="M30.597 0.396387L31.9273 4.13725C31.9842 4.2973 32.097 4.42428 32.2392 4.48852L35.5629 5.98598C36.0325 6.1976 36.0325 6.94568 35.5629 7.15709L32.2392 8.65455C32.097 8.71857 31.9842 8.84555 31.9273 9.00582L30.597 12.7467C30.409 13.2752 29.7443 13.2752 29.5563 12.7467L28.2259 9.00582C28.169 8.84576 28.0562 8.71879 27.914 8.65455L24.5904 7.15709C24.1209 6.94547 24.1209 6.19738 24.5904 5.98598L27.914 4.48852C28.0562 4.42449 28.169 4.29752 28.2259 4.13725L29.5563 0.396387C29.7443 -0.132129 30.409 -0.132129 30.597 0.396387Z" fill="#745CD4"/>
<path id="Vector_3" d="M84.9183 8.20827C84.9183 9.66362 83.7386 10.8433 82.2832 10.8433C80.8279 10.8433 79.6479 9.66341 79.6479 8.20827C79.6479 6.75292 80.8277 5.573 82.2832 5.573C83.7386 5.573 84.9183 6.7527 84.9183 8.20827Z" fill="#745CD4"/>
<path id="Vector_4" d="M12.9833 22.8857C12.9833 25.0354 11.2405 26.7782 9.09078 26.7782C6.94105 26.7782 5.19824 25.0354 5.19824 22.8857C5.19824 20.736 6.94105 18.9932 9.09078 18.9932C11.2405 18.9934 12.9833 20.736 12.9833 22.8857Z" fill="#745CD4"/>
</g>
<g id="Group_3">
<path id="Vector_5" d="M53.1766 110.001C28.6375 110.001 8.67383 90.0367 8.67383 65.4978C8.67383 40.959 28.6375 20.9951 53.1766 20.9951C77.7156 20.9951 97.6793 40.959 97.6793 65.4978C97.6791 90.0367 77.7154 110.001 53.1766 110.001ZM53.1766 25.3161C31.0202 25.3161 12.995 43.3414 12.995 65.4976C12.995 87.6538 31.0204 105.679 53.1766 105.679C75.3328 105.679 93.3581 87.654 93.3581 65.4978C93.3581 43.3417 75.3328 25.3161 53.1766 25.3161Z" fill="#745CD4"/>
<path id="Vector_6" d="M43.1663 55.5347C41.9733 55.5347 41.0059 54.5675 41.0059 53.3742C41.0059 50.0583 38.3083 47.3607 34.9926 47.3607C31.6767 47.3607 28.9791 50.0583 28.9791 53.3742C28.9791 54.5675 28.0117 55.5347 26.8187 55.5347C25.6256 55.5347 24.6582 54.5675 24.6582 53.3742C24.6582 47.6757 29.2943 43.0398 34.9928 43.0398C40.6911 43.0398 45.3272 47.6759 45.3272 53.3742C45.3268 54.5675 44.3594 55.5347 43.1663 55.5347Z" fill="#745CD4"/>
<path id="Vector_7" d="M79.5345 55.5347C78.3415 55.5347 77.374 54.5675 77.374 53.3742C77.374 50.0583 74.6765 47.3607 71.3606 47.3607C68.0449 47.3607 65.3473 50.0583 65.3473 53.3742C65.3473 54.5675 64.3799 55.5347 63.1868 55.5347C61.9938 55.5347 61.0264 54.5675 61.0264 53.3742C61.0264 47.6757 65.6625 43.0398 71.3608 43.0398C77.0593 43.0398 81.6954 47.6759 81.6954 53.3742C81.695 54.5675 80.7275 55.5347 79.5345 55.5347Z" fill="#745CD4"/>
<path id="Vector_8" d="M81.93 64.1382H24.4232C23.2301 64.1382 22.2627 65.1054 22.2627 66.2987C22.2627 83.3446 36.1306 97.2125 53.1766 97.2125C70.2225 97.2125 84.0904 83.3446 84.0904 66.2987C84.0904 65.1056 83.123 64.1382 81.93 64.1382ZM36.764 87.2064C39.7127 82.48 46.0732 79.3979 53.1766 79.3979C60.2797 79.3979 66.6402 82.48 69.5891 87.2064C65.0658 90.7651 59.3651 92.8916 53.1766 92.8916C46.988 92.8916 41.2873 90.7651 36.764 87.2064ZM72.7929 84.2325C68.8993 78.6614 61.4107 75.077 53.1763 75.077C44.9418 75.077 37.4526 78.661 33.5594 84.2321C29.6858 79.9984 27.1594 74.5123 26.6702 68.4593H79.6823C79.1933 74.5126 76.6669 79.9988 72.7929 84.2325Z" fill="#745CD4"/>
</g>
</g>
</g>
<defs>
<clipPath id="clip0_125534_7618">
<rect width="110" height="110" fill="white"/>
</clipPath>
</defs>
</svg>
