<?xml version="1.0" standalone="no"?><!DOCTYPE svg PUBLIC "-//W3C//DTD SVG 1.1//EN" "http://www.w3.org/Graphics/SVG/1.1/DTD/svg11.dtd"><svg t="1710727102121" class="icon" viewBox="0 0 1024 1024" version="1.1" xmlns="http://www.w3.org/2000/svg" p-id="880" xmlns:xlink="http://www.w3.org/1999/xlink" width="200" height="200"><path d="M650.971429 7.314286H373.028571c-256 0-365.714286 109.714286-365.714285 365.714285v277.942858c0 256 109.714286 365.714286 365.714285 365.714285h277.942858c256 0 365.714286-109.714286 365.714285-365.714285V373.028571c0-256-109.714286-365.714286-365.714285-365.714285z m292.571428 643.657143c0 212.114286-73.142857 292.571429-292.571428 292.571428H373.028571c-212.114286 0-292.571429-73.142857-292.571428-292.571428V373.028571c0-212.114286 73.142857-292.571429 292.571428-292.571428h277.942858c212.114286 0 292.571429 73.142857 292.571428 292.571428v277.942858z" p-id="881"></path><path d="M768 629.028571c-14.628571-95.085714-131.657143-168.228571-219.428571-168.228571-124.342857 0-190.171429-36.571429-212.114286-73.142857 29.257143-14.628571 51.2-51.2 51.2-80.457143 0-51.2-43.885714-102.4-102.4-102.4s-95.085714 43.885714-95.085714 102.4c0 43.885714 29.257143 80.457143 65.828571 95.085714v234.057143c-36.571429 7.314286-65.828571 43.885714-65.828571 87.771429 0 51.2 43.885714 102.4 102.4 102.4s102.4-43.885714 102.4-102.4c0-36.571429-21.942857-73.142857-58.514286-87.771429v-146.285714c36.571429 21.942857 102.4 43.885714 212.114286 43.885714 51.2 0 138.971429 51.2 146.285714 102.4-29.257143 14.628571-51.2 51.2-51.2 87.771429 0 51.2 43.885714 102.4 95.085714 102.4 51.2 0 102.4-43.885714 102.4-102.4 0-51.2-29.257143-87.771429-73.142857-95.085715zM292.571429 746.057143c-14.628571 0-29.257143-14.628571-29.257143-29.257143s14.628571-21.942857 29.257143-21.942857 29.257143 14.628571 29.257142 21.942857c-7.314286 21.942857-21.942857 29.257143-29.257142 29.257143z m0-416.914286c-14.628571 0-29.257143-14.628571-29.257143-29.257143s14.628571-21.942857 29.257143-21.942857 21.942857 14.628571 21.942857 29.257143-14.628571 21.942857-21.942857 21.942857z m453.485714 416.914286c-14.628571 0-21.942857-14.628571-21.942857-29.257143s14.628571-21.942857 21.942857-21.942857c14.628571 0 29.257143 14.628571 29.257143 21.942857-7.314286 21.942857-21.942857 29.257143-29.257143 29.257143z" p-id="882"></path></svg>