<svg xmlns="http://www.w3.org/2000/svg" width="12.677" height="12.673" viewBox="0 0 12.677 12.673"><defs><style>.a,.b{fill:none;stroke:#745CD4;stroke-linecap:round;stroke-linejoin:round;}.a{stroke-miterlimit:10;}</style></defs><g transform="translate(-0.664 -0.666)"><path class="a" d="M7,3.243h5.833"/><path class="b" d="M8.3,1.167h3.243c1.038,0,1.3.257,1.3,1.283v2.4c0,1.027-.257,1.283-1.3,1.283H8.3C7.257,6.131,7,5.874,7,4.848V2.45C7,1.424,7.257,1.167,8.3,1.167Z"/><path class="a" d="M1.164,9.952H7"/><path class="b" d="M2.459,7.875H5.7c1.038,0,1.3.257,1.3,1.283v2.4c0,1.027-.257,1.283-1.3,1.283H2.459c-1.038,0-1.295-.257-1.295-1.283v-2.4C1.164,8.132,1.421,7.875,2.459,7.875Z"/><path class="b" d="M12.841,8.749a4.08,4.08,0,0,1-4.083,4.083l.613-1.021"/><path class="b" d="M1.172,5.249A4.08,4.08,0,0,1,5.255,1.166L4.643,2.187"/></g></svg>