<svg xmlns="http://www.w3.org/2000/svg" width="16" height="15.999" viewBox="0 0 16 15.999"><defs><style>.a{fill:;fill-rule:evenodd;}</style></defs><g transform="translate(-578 -387)"><path class="a" d="M81.5,6.488a.5.5,0,0,1,.5-.5h7a.5.5,0,0,1,0,1H82A.5.5,0,0,1,81.5,6.488Z" transform="translate(504.498 383.677)"/><path class="a" d="M82.662,4.663c-.072.072-.162.257-.162.876V8.415c0,.619.09.8.162.876s.264.163.892.163h3.892c.628,0,.819-.09.892-.163s.162-.257.162-.876V5.539c0-.619-.09-.8-.162-.876s-.264-.163-.892-.163H83.554C82.926,4.5,82.735,4.59,82.662,4.663Zm-.7-.71a2.183,2.183,0,0,1,1.6-.453h3.892a2.183,2.183,0,0,1,1.6.453A2.146,2.146,0,0,1,89.5,5.539V8.415A2.146,2.146,0,0,1,89.042,10a2.183,2.183,0,0,1-1.6.453H83.554a2.183,2.183,0,0,1-1.6-.453A2.146,2.146,0,0,1,81.5,8.415V5.539A2.146,2.146,0,0,1,81.958,3.953Z" transform="translate(504.498 383.5)"/><path class="a" d="M74.5,14.535a.5.5,0,0,1,.5-.5h7a.5.5,0,0,1,0,1H75A.5.5,0,0,1,74.5,14.535Z" transform="translate(503.5 384.251)"/><path class="a" d="M75.662,12.71c-.072.072-.162.257-.162.876v2.876c0,.619.09.8.162.876s.264.163.892.163h3.892c.628,0,.819-.09.892-.163s.162-.257.162-.876V13.586c0-.619-.09-.8-.162-.876s-.264-.163-.892-.163H76.554C75.926,12.547,75.735,12.637,75.662,12.71Zm-.7-.71a2.183,2.183,0,0,1,1.6-.453h3.892a2.183,2.183,0,0,1,1.6.453,2.146,2.146,0,0,1,.458,1.586v2.876a2.146,2.146,0,0,1-.458,1.586,2.183,2.183,0,0,1-1.6.453H76.554a2.183,2.183,0,0,1-1.6-.453,2.146,2.146,0,0,1-.458-1.586V13.586A2.146,2.146,0,0,1,74.958,12Z" transform="translate(503.5 384.498)"/><path class="a" d="M89,12.594a.5.5,0,0,1,.5.5,5.4,5.4,0,0,1-5.4,5.4.5.5,0,0,1-.429-.757l.735-1.224a.5.5,0,1,1,.857.515l-.22.366a4.4,4.4,0,0,0,3.456-4.3A.5.5,0,0,1,89,12.594Z" transform="translate(504.498 384.498)"/><path class="a" d="M78.956,4.6A4.4,4.4,0,0,0,75.5,8.9a.5.5,0,0,1-1,0,5.4,5.4,0,0,1,5.4-5.4.5.5,0,0,1,.429.757l-.735,1.224a.5.5,0,0,1-.857-.515Z" transform="translate(503.5 383.5)"/></g></svg>