<svg width="10" height="14" viewBox="0 0 10 14" fill="none" xmlns="http://www.w3.org/2000/svg">
<path d="M8.79985 7.39014V9.61009C8.79985 11.4821 7.05388 13 4.89992 13C2.74597 13 1 11.4821 1 9.61009V7.39014C1 9.2621 2.74597 10.6001 4.89992 10.6001C7.05388 10.6001 8.79985 9.2621 8.79985 7.39014Z" stroke="#B3B5F2" stroke-linecap="round" stroke-linejoin="round"/>
<path d="M8.79985 4.38993C8.79985 4.93592 8.64985 5.43991 8.38586 5.8719C7.74387 6.92788 6.42389 7.59987 4.89992 7.59987C3.37595 7.59987 2.05598 6.92788 1.41399 5.8719C1.15 5.43991 1 4.93592 1 4.38993C1 3.45395 1.43799 2.60797 2.13997 1.99598C2.84796 1.37799 3.81994 1 4.89992 1C5.9799 1 6.95188 1.37799 7.65987 1.98998C8.36186 2.60797 8.79985 3.45395 8.79985 4.38993Z" stroke="#B3B5F2" stroke-linecap="round" stroke-linejoin="round"/>
<path d="M8.79985 4.38993V7.38987C8.79985 9.26184 7.05388 10.5998 4.89992 10.5998C2.74597 10.5998 1 9.26184 1 7.38987V4.38993C1 2.51797 2.74597 1 4.89992 1C5.9799 1 6.95188 1.37799 7.65987 1.98998C8.36186 2.60797 8.79985 3.45395 8.79985 4.38993Z" stroke="#B3B5F2" stroke-linecap="round" stroke-linejoin="round"/>
</svg>
