<svg width="32" height="32" viewBox="0 0 32 32" fill="none" xmlns="http://www.w3.org/2000/svg">
<g id="Group 5345">
<path id="Vector" d="M15.5484 32.0032C24.1319 32.0032 31.09 25.4547 31.09 17.3758C31.09 9.29687 31.9064 9.125 15.5484 9.125C-0.80967 9.125 0.00672446 9.29687 0.00672446 17.3758C0.00672446 25.4547 6.96482 32.0032 15.5484 32.0032Z" fill="#656A91"/>
<path id="Vector_2" d="M0 14.6274C0 18.5069 1.63742 22.2274 4.55205 24.9706C7.46667 27.7138 11.4198 29.2549 15.5417 29.2549C19.6636 29.2549 23.6166 27.7138 26.5313 24.9706C29.4459 22.2274 31.0833 18.5069 31.0833 14.6274C31.0833 10.748 29.4459 7.02745 26.5313 4.28428C23.6166 1.5411 19.6636 0 15.5417 0C11.4198 0 7.46667 1.5411 4.55205 4.28428C1.63742 7.02745 0 10.748 0 14.6274Z" fill="#888CBD"/>
<path id="Vector_3" d="M1.875 14.1544C1.875 17.4277 3.31978 20.5669 5.89151 22.8814C8.46324 25.196 11.9513 26.4963 15.5882 26.4963C19.2252 26.4963 22.7132 25.196 25.2849 22.8814C27.8567 20.5669 29.3015 17.4277 29.3015 14.1544C29.3015 10.8811 27.8567 7.74191 25.2849 5.42736C22.7132 3.1128 19.2252 1.8125 15.5882 1.8125C11.9513 1.8125 8.46324 3.1128 5.89151 5.42736C3.31978 7.74191 1.875 10.8811 1.875 14.1544Z" fill="#656A91"/>
<path id="Vector_4" d="M2.75 14.1777C2.75 17.2085 4.09846 20.1152 6.49874 22.2583C8.89902 24.4014 12.1545 25.6054 15.549 25.6054C18.9435 25.6054 22.199 24.4014 24.5993 22.2583C26.9996 20.1152 28.348 17.2085 28.348 14.1777C28.348 12.677 28.017 11.191 27.3738 9.8045C26.7305 8.41803 25.7878 7.15825 24.5993 6.09709C23.4108 5.03593 21.9998 4.19418 20.447 3.61988C18.8941 3.04559 17.2298 2.75 15.549 2.75C13.8682 2.75 12.2039 3.04559 10.651 3.61988C9.09819 4.19418 7.68724 5.03593 6.49874 6.09709C5.31024 7.15825 4.36748 8.41803 3.72427 9.8045C3.08106 11.191 2.75 12.677 2.75 14.1777Z" fill="#B3B5F2" fill-opacity="0.49"/>
<path id="Vector_5" d="M18.8055 15.4759L22.8646 14.879L22.8774 16.6333C22.6032 17.7066 22.1735 18.6035 21.5847 19.3229C21.0015 20.0396 20.249 20.5998 19.3952 20.953C18.523 21.3187 17.4132 21.5024 16.0665 21.5024C14.4319 21.5024 13.0972 21.2794 12.0604 20.8323C11.0246 20.3853 10.1305 19.6 9.37814 18.4746C8.62574 17.3501 8.25 15.9102 8.25 14.1549C8.25 11.8145 8.91189 10.0172 10.2348 8.76011C11.5585 7.50307 13.4299 6.875 15.8508 6.875C17.745 6.875 19.2343 7.2352 20.3186 7.95469C20.7455 8.23809 21.5399 8.74091 22.701 9.46314C22.6864 10.1689 22.6973 10.7723 22.7339 11.2715L18.6309 12.1308C18.4874 11.6993 18.3365 11.3848 18.1793 11.1855C17.9266 10.8569 17.5999 10.5925 17.2258 10.4139C16.831 10.2296 16.3997 10.1371 15.9641 10.1433C14.911 10.1433 14.1037 10.5419 13.5433 11.3391C13.1191 11.9306 12.907 12.8595 12.907 14.1256C12.907 15.6944 13.1602 16.7695 13.6658 17.351C14.1723 17.9333 14.8835 18.2241 15.7996 18.2241C16.6882 18.2241 17.3602 17.9891 17.8154 17.5201C18.2698 17.0511 18.5998 16.3691 18.8055 15.4759Z" fill="#656A91"/>
<path id="Vector_6" d="M18.8055 13.6009L22.8774 14.7583C22.6032 15.8316 22.1735 16.7285 21.5847 17.448C21.0015 18.1646 20.249 18.7248 19.3952 19.078C18.523 19.4437 17.4132 19.6274 16.0665 19.6274C14.4319 19.6274 13.0972 19.4044 12.0604 18.9573C11.0246 18.5103 10.1305 17.725 9.37814 16.5996C8.62574 15.4751 8.25 14.0352 8.25 12.2799C8.25 9.9395 8.91189 8.14216 10.2348 6.88511C11.5585 5.62807 13.4299 5 15.8508 5C17.745 5 19.2343 5.3602 20.3186 6.07969C21.4019 6.80009 22.2073 7.90538 22.7339 9.39646L18.6309 10.2558C18.4874 9.82431 18.3365 9.50982 18.1793 9.31052C17.9266 8.98189 17.5999 8.71753 17.2258 8.53893C16.831 8.35464 16.3997 8.26212 15.9641 8.26832C14.911 8.26832 14.1037 8.66692 13.5433 9.46411C13.1191 10.0556 12.907 10.9845 12.907 12.2506C12.907 13.8194 13.1602 14.8945 13.6658 15.476C14.1723 16.0583 14.8835 16.3491 15.7996 16.3491C16.6882 16.3491 17.3602 16.1141 17.8154 15.6451C18.2698 15.1761 18.5998 14.4941 18.8055 13.6009Z" fill="#B3B5F2"/>
</g>
</svg>
