<?xml version="1.0" standalone="no"?><!DOCTYPE svg PUBLIC "-//W3C//DTD SVG 1.1//EN" "http://www.w3.org/Graphics/SVG/1.1/DTD/svg11.dtd"><svg class="icon" width="200px" height="200.00px" viewBox="0 0 1024 1024" version="1.1" xmlns="http://www.w3.org/2000/svg"><path d="M1024 0v585.142857a438.857143 438.857143 0 0 1-438.857143 438.857143H0V438.857143a438.857143 438.857143 0 0 1 438.857143-438.857143h585.142857z m-73.142857 73.142857H438.857143a365.714286 365.714286 0 0 0-365.714286 365.714286v512h512a365.714286 365.714286 0 0 0 365.348572-349.842286L950.857143 585.142857V73.142857zM336.310857 595.090286a36.571429 36.571429 0 0 1 36.571429 36.571428v182.857143a36.571429 36.571429 0 0 1-73.142857 0v-182.857143a36.571429 36.571429 0 0 1 36.571428-36.571428z m180.662857-57.417143a36.571429 36.571429 0 0 1 36.571429 36.571428v240.274286a36.571429 36.571429 0 0 1-73.142857 0V574.171429a36.571429 36.571429 0 0 1 36.571428-36.571429z m180.516572-119.734857a36.571429 36.571429 0 0 1 36.571428 36.571428v360.009143a36.571429 36.571429 0 0 1-73.142857 0V454.509714a36.571429 36.571429 0 0 1 36.571429-36.571428z m55.954285-242.834286a36.571429 36.571429 0 0 1 36.571429 36.571429v126.683428a36.571429 36.571429 0 0 1-29.988571 35.986286l-6.582858 0.585143a36.571429 36.571429 0 0 1-36.571428-36.571429v-39.058286C643.949714 380.781714 551.058286 424.301714 447.634286 436.882286c-73.874286 8.996571-148.187429 0.585143-187.977143-12.434286a36.571429 36.571429 0 1 1 22.820571-69.485714c29.988571 9.801143 93.403429 16.969143 156.306286 9.289143 87.478857-10.605714 164.644571-46.957714 225.572571-115.931429l-37.668571-0.146286a36.571429 36.571429 0 1 1 0-73.142857h126.756571z" /></svg>