<svg width="24" height="24" viewBox="0 0 24 24" fill="none" xmlns="http://www.w3.org/2000/svg">
<path fill-rule="evenodd" clip-rule="evenodd" d="M6.79107 21.0568C7.42114 21.1726 8.14534 21.2308 8.97772 21.2308H15.0197C15.8521 21.2308 16.5763 21.1726 17.2063 21.0568C16.6552 19.3016 14.6385 17.8439 11.9987 17.8439C9.35894 17.8439 7.34222 19.3016 6.79107 21.0568ZM4.97958 21.6165C5.24917 18.4304 8.43822 16.1656 11.9987 16.1656C15.5592 16.1656 18.7482 18.4304 19.0178 21.6165C19.0514 22.0134 18.8014 22.3792 18.4194 22.492C17.4317 22.7839 16.2985 22.9091 15.0197 22.9091H8.97772C7.69885 22.9091 6.56572 22.7839 5.57798 22.492C5.19601 22.3792 4.946 22.0134 4.97958 21.6165Z" fill="#fff"/>
<path fill-rule="evenodd" clip-rule="evenodd" d="M2.97199 2.97306C4.33923 1.60582 6.37771 1.09091 8.97795 1.09091H15.0199C17.6202 1.09091 19.6586 1.60582 21.0259 2.97306C22.3931 4.34029 22.908 6.37877 22.908 8.97902V15.021C22.908 16.992 22.6138 18.6337 21.8799 19.9093C21.1261 21.2194 19.9592 22.0563 18.4105 22.4947C18.1694 22.5629 17.9105 22.5199 17.7044 22.3774C17.4984 22.2348 17.3668 22.0077 17.3457 21.758C17.1722 19.7078 14.9839 17.8439 11.9989 17.8439C9.01396 17.8439 6.82563 19.7078 6.65215 21.758C6.63103 22.0077 6.49947 22.2348 6.29344 22.3774C6.08741 22.5199 5.82847 22.5629 5.58741 22.4947C4.03867 22.0563 2.8718 21.2194 2.118 19.9093C1.38408 18.6337 1.08984 16.992 1.08984 15.021V8.97902C1.08984 6.37877 1.60475 4.34029 2.97199 2.97306ZM4.15874 4.15981C3.26025 5.0583 2.76817 6.5443 2.76817 8.97902V15.021C2.76817 16.8563 3.04791 18.1601 3.57272 19.0723C3.94407 19.7177 4.46237 20.2092 5.1841 20.5581C5.98619 17.9404 8.84702 16.1656 11.9989 16.1656C15.1509 16.1656 18.0117 17.9404 18.8138 20.5581C19.5355 20.2092 20.0538 19.7177 20.4251 19.0723C20.95 18.1601 21.2297 16.8563 21.2297 15.021V8.97902C21.2297 6.5443 20.7376 5.0583 19.8391 4.15981C18.9406 3.26131 17.4546 2.76923 15.0199 2.76923H8.97795C6.54324 2.76923 5.05724 3.26131 4.15874 4.15981ZM11.9989 7.80419C10.4685 7.80419 9.23307 9.03969 9.23307 10.5701C9.23307 12.1035 10.4716 13.346 11.9989 13.346C13.5263 13.346 14.7648 12.1035 14.7648 10.5701C14.7648 9.03969 13.5293 7.80419 11.9989 7.80419ZM7.55475 10.5701C7.55475 8.11279 9.54162 6.12587 11.9989 6.12587C14.4562 6.12587 16.4431 8.11279 16.4431 10.5701C16.4431 13.0243 14.4593 15.0243 11.9989 15.0243C9.53858 15.0243 7.55475 13.0243 7.55475 10.5701Z" fill="#fff"/>
<path fill-rule="evenodd" clip-rule="evenodd" d="M11.9989 7.80419C10.4685 7.80419 9.23301 9.03969 9.23301 10.5701C9.23301 12.1035 10.4715 13.346 11.9989 13.346C13.5262 13.346 14.7647 12.1035 14.7647 10.5701C14.7647 9.03969 13.5293 7.80419 11.9989 7.80419ZM7.55469 10.5701C7.55469 8.11279 9.54156 6.12587 11.9989 6.12587C14.4562 6.12587 16.4431 8.11279 16.4431 10.5701C16.4431 13.0243 14.4592 15.0243 11.9989 15.0243C9.53852 15.0243 7.55469 13.0243 7.55469 10.5701Z" fill="#fff"/>
</svg>
