<svg width="28" height="28" viewBox="0 0 28 28" fill="none" xmlns="http://www.w3.org/2000/svg">
<circle id="Ellipse 5" cx="14" cy="14" r="14" fill="#745CD4"/>
<path id="Vector" d="M11.4043 19.5999C16.686 19.5999 19.5757 15.2905 19.5757 11.5545C19.5757 11.4334 19.5729 11.3095 19.5675 11.1884C20.1296 10.7881 20.6147 10.2923 21 9.72434C20.4765 9.95368 19.9206 10.1035 19.3514 10.1686C19.9507 9.81486 20.3995 9.25923 20.6145 8.60465C20.0507 8.93363 19.4341 9.16569 18.7912 9.2909C18.358 8.83772 17.7852 8.53766 17.1615 8.43711C16.5377 8.33656 15.8977 8.44113 15.3403 8.73464C14.783 9.02816 14.3394 9.49427 14.0781 10.0609C13.8168 10.6276 13.7523 11.2632 13.8947 11.8695C12.7531 11.8131 11.6363 11.5211 10.6167 11.0125C9.59702 10.5038 8.69732 9.7899 7.9759 8.91695C7.60923 9.53937 7.49703 10.2759 7.6621 10.9769C7.82717 11.6778 8.25712 12.2906 8.86457 12.6906C8.40853 12.6764 7.96249 12.5555 7.56328 12.3379V12.3729C7.56287 13.0261 7.79222 13.6593 8.21235 14.1648C8.63247 14.6703 9.21744 15.017 9.86781 15.1459C9.44537 15.2597 9.00199 15.2763 8.57199 15.1944C8.75552 15.7561 9.11258 16.2474 9.59337 16.5998C10.0741 16.9521 10.6547 17.1478 11.2539 17.1597C10.2366 17.9465 8.97993 18.3732 7.68633 18.3712C7.45692 18.3708 7.22773 18.357 7 18.3297C8.31417 19.1598 9.84289 19.6007 11.4043 19.5999Z" fill="white"/>
</svg>
