<svg width="16" height="19" viewBox="0 0 16 19" fill="none" xmlns="http://www.w3.org/2000/svg">
<path id="&#229;&#188;&#128;&#233;&#148;&#129;" fill-rule="evenodd" clip-rule="evenodd" d="M2.32353 5.67647C2.32353 2.54144 4.86497 0 8 0H8.47059C11.3457 0 13.6765 2.33075 13.6765 5.20588H12.6765C12.6765 2.88304 10.7934 1 8.47059 1H8C5.41726 1 3.32353 3.09373 3.32353 5.67647V6.61765V7.1452C3.54342 7.10774 3.76943 7.08824 4 7.08824H12C14.2091 7.08824 16 8.8791 16 11.0882V14.3824C16 16.5915 14.2091 18.3824 12 18.3824H4C1.79086 18.3824 0 16.5915 0 14.3824V11.0882C0 9.47774 0.951776 8.08954 2.32353 7.45545V6.61765V5.67647ZM12 8.08823H4C2.34315 8.08823 1 9.43138 1 11.0882V14.3824C1 16.0392 2.34315 17.3824 4 17.3824H12C13.6569 17.3824 15 16.0392 15 14.3824V11.0882C15 9.43138 13.6569 8.08823 12 8.08823ZM7.52941 12.9631V11.5663V11.3235C7.52941 11.0636 7.7401 10.8529 8 10.8529C8.2599 10.8529 8.47059 11.0636 8.47059 11.3235V11.5663V12.9631V13.2059C8.47059 13.4658 8.2599 13.6765 8 13.6765C7.7401 13.6765 7.52941 13.4658 7.52941 13.2059V12.9631Z" fill="#B3B5F2"/>
</svg>
