<svg width="24" height="24" viewBox="0 0 24 24" fill="none" xmlns="http://www.w3.org/2000/svg">
<g id="Group 4870">
<path id="Vector" d="M12 22C17.5228 22 22 17.5228 22 12C22 6.47715 17.5228 2 12 2C6.47715 2 2 6.47715 2 12C2 17.5228 6.47715 22 12 22Z" fill="#745CD4" stroke="#745CD4" stroke-width="1.5" stroke-linecap="round" stroke-linejoin="round"/>
<g id="Mask group">
<mask id="mask0_125583_7520" style="mask-type:alpha" maskUnits="userSpaceOnUse" x="1" y="1" width="22" height="22">
<path id="Vector_2" d="M12 22C17.5228 22 22 17.5228 22 12C22 6.47715 17.5228 2 12 2C6.47715 2 2 6.47715 2 12C2 17.5228 6.47715 22 12 22Z" fill="#745CD4" stroke="#745CD4" stroke-width="1.5" stroke-linecap="round" stroke-linejoin="round"/>
</mask>
<g mask="url(#mask0_125583_7520)">
<g id="Group 4871">
<path id="Vector_3" d="M11.86 12.55C11.79 12.54 11.7 12.54 11.62 12.55C9.85996 12.49 8.45996 11.05 8.45996 9.28C8.45996 7.47 9.91996 6 11.74 6C13.55 6 15.02 7.47 15.02 9.28C15.01 11.05 13.62 12.49 11.86 12.55Z" fill="#F3F3F3" stroke="#F3F3F3" stroke-width="1.5" stroke-linecap="round" stroke-linejoin="round"/>
<path id="Vector_4" d="M19 19.5C17.22 21.13 14.6 22 12 22C9.4 22 6.78 21.13 5 19.5C5.1 18.56 5.7 17.085 6.77 16.365C9.51 14.545 13.99 14.545 16.71 16.365C17.78 17.085 18.9 18.56 19 19.5Z" fill="#F3F3F3" stroke="#F3F3F3" stroke-width="1.5" stroke-linecap="round" stroke-linejoin="round"/>
</g>
</g>
</g>
</g>
</svg>
