<svg width="26" height="26" viewBox="0 0 26 26" fill="none" xmlns="http://www.w3.org/2000/svg">
<path d="M13.25 5L13.481 5.00338C15.5875 5.0624 17.5916 5.92527 19.0821 7.41498C20.5726 8.90469 21.4365 10.9083 21.4966 13.0148L21.5 13.25L21.4966 13.481C21.4376 15.5875 20.5747 17.5916 19.085 19.0821C17.5953 20.5726 15.5917 21.4365 13.4852 21.4966L13.25 21.5L13.019 21.4966C10.9125 21.4376 8.90843 20.5747 7.41794 19.085C5.92744 17.5953 5.06351 15.5917 5.00338 13.4852L5 13.25L5.00338 13.019C5.0624 10.9125 5.92527 8.90843 7.41498 7.41794C8.90469 5.92744 10.9083 5.06351 13.0148 5.00338L13.25 5ZM13.25 6.26923C11.4355 6.26926 9.69237 6.97578 8.38991 8.23907C7.08744 9.50236 6.32804 11.2231 6.27262 13.0368L6.26923 13.25L6.27262 13.4632C6.32909 15.2761 7.08896 16.9959 8.3913 18.2583C9.69365 19.5207 11.4362 20.2266 13.25 20.2266C15.0638 20.2266 16.8063 19.5207 18.1087 18.2583C19.411 16.9959 20.1709 15.2761 20.2274 13.4632L20.2308 13.25L20.2274 13.0368C20.172 11.2231 19.4126 9.50236 18.1101 8.23907C16.8076 6.97578 15.0645 6.26926 13.25 6.26923ZM13.25 16.8377C13.4034 16.8377 13.5515 16.8932 13.6671 16.994C13.7827 17.0948 13.8578 17.2341 13.8787 17.386L13.8846 17.4808L13.8787 17.5671C13.8578 17.719 13.7826 17.8582 13.667 17.9589C13.5515 18.0597 13.4033 18.1152 13.25 18.1152C13.0967 18.1152 12.9485 18.0597 12.833 17.9589C12.7174 17.8582 12.6422 17.719 12.6213 17.5671L12.6154 17.4723L12.6213 17.386C12.6422 17.2341 12.7173 17.0948 12.8329 16.994C12.9485 16.8932 13.0966 16.8377 13.25 16.8377ZM13.25 8.38461C14.9533 8.38461 16.3317 9.66908 16.4188 11.3148L16.4231 11.4807L16.4163 11.6652C16.3385 12.6788 15.6268 13.2466 15.0752 13.6291L14.8763 13.7645C14.2298 14.2062 13.9286 14.4482 13.8888 14.8475L13.8846 14.9423C13.8846 15.1031 13.8235 15.2579 13.7137 15.3754C13.6039 15.4929 13.4537 15.5643 13.2933 15.5753C13.1328 15.5862 12.9742 15.5359 12.8495 15.4344C12.7248 15.3329 12.6432 15.1879 12.6213 15.0286L12.6154 14.9423C12.6154 13.8931 13.3194 13.3008 13.8821 12.9073L14.1613 12.7161C14.7875 12.2896 15.1031 12.029 15.1479 11.5932L15.1538 11.4807L15.1496 11.3521C15.0853 10.4585 14.3618 9.72323 13.3896 9.65892L13.25 9.65385C12.3641 9.65385 11.6169 10.2013 11.3631 10.9045L11.3242 11.0314L11.2962 11.1126C11.2366 11.254 11.1278 11.3691 10.9899 11.4364C10.852 11.5038 10.6944 11.5189 10.5462 11.4789C10.398 11.4389 10.2693 11.3466 10.184 11.2191C10.0986 11.0915 10.0624 10.9374 10.082 10.7852L10.0989 10.7005L10.1455 10.5448C10.5499 9.32131 11.7362 8.45908 13.0748 8.38885L13.25 8.38461Z" fill="#B3B5F2"/>
</svg>
