<svg width="16" height="16" viewBox="0 0 16 16" fill="none" xmlns="http://www.w3.org/2000/svg">
<path d="M4.28906 6.08173L7.99849 8.2304L11.6799 6.09572" stroke="#B3B5F2" stroke-linecap="round" stroke-linejoin="round"/>
<path d="M8 12.0378V8.22339" stroke="#B3B5F2" stroke-linecap="round" stroke-linejoin="round"/>
<path d="M7.12835 4.00217L4.8887 5.24798C4.38477 5.52794 3.96484 6.23483 3.96484 6.81574V9.18837C3.96484 9.76928 4.37777 10.4762 4.8887 10.7561L7.12835 12.0019C7.60428 12.2679 8.38816 12.2679 8.87108 12.0019L11.1107 10.7561C11.6147 10.4762 12.0346 9.76928 12.0346 9.18837V6.80874C12.0346 6.22783 11.6217 5.52094 11.1107 5.24098L8.87108 3.99517C8.38816 3.72921 7.60428 3.72921 7.12835 4.00217Z" stroke="#B3B5F2" stroke-linecap="round" stroke-linejoin="round"/>
<path d="M15.0008 10.0986C15.0008 12.8072 12.8101 14.9979 10.1016 14.9979L10.8365 13.7731" stroke="#B3B5F2" stroke-linecap="round" stroke-linejoin="round"/>
<path d="M1 5.89925C1 3.19066 3.19066 1 5.89925 1L5.16436 2.22481" stroke="#B3B5F2" stroke-linecap="round" stroke-linejoin="round"/>
</svg>
