<svg width="19" height="19" viewBox="0 0 19 19" fill="none" xmlns="http://www.w3.org/2000/svg">
<g id="Group 3851">
<path id="Vector" d="M8.55387 1.21094H6.87524C2.67864 1.21094 1 2.88958 1 7.08617V12.1221C1 16.3187 2.67864 17.9973 6.87524 17.9973H11.9112C16.1077 17.9973 17.7864 16.3187 17.7864 12.1221V10.4435" stroke="#B3B5F2" stroke-width="1.5" stroke-linecap="round" stroke-linejoin="round"/>
<path id="Vector_2" d="M12.7886 2.06697L6.17471 8.68079C5.92292 8.93259 5.67112 9.42779 5.62076 9.7887L5.25986 12.315C5.12556 13.2299 5.77184 13.8678 6.6867 13.7419L9.21305 13.381C9.56556 13.3306 10.0608 13.0788 10.321 12.827L16.9348 6.2132C18.0763 5.07173 18.6134 3.74561 16.9348 2.06697C15.2561 0.388329 13.93 0.925493 12.7886 2.06697Z" stroke="#B3B5F2" stroke-width="1.5" stroke-miterlimit="10" stroke-linecap="round" stroke-linejoin="round"/>
<path id="Vector_3" d="M11.8359 3.01562C12.3983 5.0216 13.9678 6.59113 15.9822 7.16186" stroke="#B3B5F2" stroke-width="1.5" stroke-miterlimit="10" stroke-linecap="round" stroke-linejoin="round"/>
</g>
</svg>
