<svg width="18" height="18" viewBox="0 0 18 18" fill="none" xmlns="http://www.w3.org/2000/svg">
<g id="Frame 5149">
<path id="Vector" d="M14.3333 4.33333V2.75833C14.3333 2.73402 14.3237 2.71071 14.3065 2.69351C14.2893 2.67632 14.266 2.66667 14.2417 2.66667H2.75833C2.73402 2.66667 2.71071 2.67632 2.69351 2.69351C2.67632 2.71071 2.66667 2.73402 2.66667 2.75833V4.33333H14.3333ZM14.3333 6H2.66667V14.2417C2.66667 14.2917 2.70833 14.3333 2.75833 14.3333H14.2417C14.2917 14.3333 14.3333 14.2917 14.3333 14.2417V6ZM14.2417 16H2.75833C2.29199 16 1.84476 15.8147 1.515 15.485C1.18525 15.1552 1 14.708 1 14.2417V2.75833C1 2.29199 1.18525 1.84476 1.515 1.515C1.84476 1.18525 2.29199 1 2.75833 1H14.2417C14.708 1 15.1552 1.18525 15.485 1.515C15.8147 1.84476 16 2.29199 16 2.75833V14.2417C16 14.708 15.8147 15.1552 15.485 15.485C15.1552 15.8147 14.708 16 14.2417 16ZM9.33333 9.33333H5.16667C4.94565 9.33333 4.73369 9.24554 4.57741 9.08926C4.42113 8.93298 4.33333 8.72101 4.33333 8.5C4.33333 8.27899 4.42113 8.06702 4.57741 7.91074C4.73369 7.75446 4.94565 7.66667 5.16667 7.66667H9.33333C9.55435 7.66667 9.76631 7.75446 9.92259 7.91074C10.0789 8.06702 10.1667 8.27899 10.1667 8.5C10.1667 8.72101 10.0789 8.93298 9.92259 9.08926C9.76631 9.24554 9.55435 9.33333 9.33333 9.33333ZM11.8333 12.6667H8.5C8.27899 12.6667 8.06702 12.5789 7.91074 12.4226C7.75446 12.2663 7.66667 12.0543 7.66667 11.8333C7.66667 11.6123 7.75446 11.4004 7.91074 11.2441C8.06702 11.0878 8.27899 11 8.5 11H11.8333C12.0543 11 12.2663 11.0878 12.4226 11.2441C12.5789 11.4004 12.6667 11.6123 12.6667 11.8333C12.6667 12.0543 12.5789 12.2663 12.4226 12.4226C12.2663 12.5789 12.0543 12.6667 11.8333 12.6667Z" fill="#B3B5F2"/>
</g>
</svg>
