<?xml version="1.0" standalone="no"?><!DOCTYPE svg PUBLIC "-//W3C//DTD SVG 1.1//EN" "http://www.w3.org/Graphics/SVG/1.1/DTD/svg11.dtd"><svg t="1710474300678" class="icon" viewBox="0 0 1024 1024" version="1.1" xmlns="http://www.w3.org/2000/svg" p-id="1268" xmlns:xlink="http://www.w3.org/1999/xlink" width="200" height="200"><path d="M102.4 102.4v332.8h256V102.4H102.4M76.8 0h307.2a76.8 76.8 0 0 1 76.8 76.8v384a76.8 76.8 0 0 1-76.8 76.8H76.8a76.8 76.8 0 0 1-76.8-76.8V76.8a76.8 76.8 0 0 1 76.8-76.8z" fill="" p-id="1269"></path><path d="M665.6 588.8v332.8h256V588.8H665.6m-25.6-102.4h307.2a76.8 76.8 0 0 1 76.8 76.8v384a76.8 76.8 0 0 1-76.8 76.8H640a76.8 76.8 0 0 1-76.8-76.8V563.2a76.8 76.8 0 0 1 76.8-76.8z" fill="" p-id="1270"></path><path d="M102.4 742.4v179.2h256v-179.2H102.4m-25.6-102.4h307.2a76.8 76.8 0 0 1 76.8 76.8v230.4a76.8 76.8 0 0 1-76.8 76.8H76.8a76.8 76.8 0 0 1-76.8-76.8v-230.4a76.8 76.8 0 0 1 76.8-76.8z" fill="" p-id="1271"></path><path d="M665.6 102.4v179.2h256V102.4H665.6m-25.6-102.4h307.2a76.8 76.8 0 0 1 76.8 76.8v230.4a76.8 76.8 0 0 1-76.8 76.8H640a76.8 76.8 0 0 1-76.8-76.8V76.8a76.8 76.8 0 0 1 76.8-76.8z" fill="" p-id="1272"></path></svg>