<svg width="14" height="14" viewBox="0 0 14 14" fill="none" xmlns="http://www.w3.org/2000/svg">
<g id="Group 3634">
<path id="Vector" d="M3.82031 5.35547L7.00031 7.19747L10.1563 5.36747" stroke="#B3B5F2" stroke-linecap="round" stroke-linejoin="round"/>
<path id="Vector_2" d="M7 10.4614V7.19141" stroke="#B3B5F2" stroke-linecap="round" stroke-linejoin="round"/>
<path id="Vector_3" d="M6.25887 3.5747L4.33887 4.64269C3.90687 4.88269 3.54688 5.48869 3.54688 5.98669V8.02069C3.54688 8.51869 3.90087 9.1247 4.33887 9.3647L6.25887 10.4327C6.66687 10.6607 7.33887 10.6607 7.75287 10.4327L9.67287 9.3647C10.1049 9.1247 10.4649 8.51869 10.4649 8.02069V5.9807C10.4649 5.4827 10.1109 4.87669 9.67287 4.63669L7.75287 3.56869C7.33887 3.34069 6.66687 3.3407 6.25887 3.5747Z" stroke="#B3B5F2" stroke-linecap="round" stroke-linejoin="round"/>
<path id="Vector_4" d="M12.9969 8.80078C12.9969 11.1228 11.1189 13.0008 8.79688 13.0008L9.42688 11.9508" stroke="#B3B5F2" stroke-linecap="round" stroke-linejoin="round"/>
<path id="Vector_5" d="M1 5.2C1 2.878 2.878 1 5.2 1L4.57 2.05" stroke="#B3B5F2" stroke-linecap="round" stroke-linejoin="round"/>
</g>
</svg>
